<?xml version="1.0" standalone="no"?>
<!DOCTYPE svg PUBLIC "-//W3C//DTD SVG 20010904//EN"
 "http://www.w3.org/TR/2001/REC-SVG-20010904/DTD/svg10.dtd">
<svg version="1.0" xmlns="http://www.w3.org/2000/svg"
 width="1126.000000pt" height="1280.000000pt" viewBox="0 0 1126.000000 1280.000000"
 preserveAspectRatio="xMidYMid meet">
<metadata>
Created by potrace 1.15, written by Peter Selinger 2001-2017
</metadata>
<g transform="translate(0.000000,1280.000000) scale(0.100000,-0.100000)"
fill="#000000" stroke="none">
<path d="M8118 12789 c-21 -12 -23 -40 -6 -57 22 -22 -9 -14 -73 19 -72 36
-103 35 -107 -3 -3 -29 -28 -43 -97 -54 -93 -15 -191 -52 -219 -83 -10 -10
-30 -22 -44 -26 -49 -12 -150 -133 -181 -216 -12 -30 -36 -73 -54 -95 -18 -21
-43 -53 -55 -70 -11 -17 -47 -46 -78 -65 -80 -48 -97 -65 -88 -92 5 -12 7 -31
6 -42 -1 -11 -5 -56 -9 -100 -5 -44 -12 -86 -16 -93 -5 -6 -28 -21 -52 -32
-24 -11 -47 -24 -50 -30 -3 -5 -19 -10 -34 -10 -15 0 -32 -5 -38 -11 -19 -19
-40 -3 -62 45 -14 32 -27 47 -46 52 -34 8 -148 -4 -156 -18 -9 -15 -48 -12
-98 6 -41 16 -48 16 -93 1 -44 -14 -50 -14 -64 0 -21 21 -50 19 -101 -6 -47
-23 -95 -24 -383 -14 -110 5 -137 9 -147 22 -17 23 -134 21 -170 -2 -18 -12
-28 -14 -36 -6 -14 14 -47 14 -47 1 0 -5 -9 -10 -20 -10 -11 0 -20 -4 -20 -9
0 -5 -26 -12 -57 -16 -32 -3 -96 -15 -143 -27 -47 -11 -112 -25 -145 -32 -62
-11 -75 -17 -281 -117 -67 -33 -126 -59 -133 -59 -6 0 -11 -4 -11 -8 0 -4 -15
-16 -32 -26 -18 -10 -44 -29 -58 -41 -14 -12 -37 -25 -52 -29 -14 -3 -39 -17
-55 -29 -15 -13 -40 -27 -55 -31 -30 -7 -98 -69 -98 -89 0 -7 -13 -20 -29 -30
-16 -9 -55 -42 -87 -72 -31 -30 -60 -55 -64 -55 -4 0 -20 -11 -36 -25 -16 -14
-45 -36 -64 -48 -46 -28 -53 -33 -113 -89 -29 -26 -74 -66 -102 -89 -27 -23
-105 -94 -173 -158 -68 -64 -131 -120 -140 -125 -9 -5 -19 -12 -22 -16 -3 -4
-12 -11 -21 -16 -9 -5 -35 -33 -58 -61 -41 -52 -102 -93 -140 -93 -33 0 -54
-29 -48 -66 9 -56 -81 -172 -111 -142 -5 5 -19 7 -30 4 -21 -7 -32 -43 -32
-103 0 -48 -13 -69 -87 -141 -39 -39 -66 -75 -70 -93 -3 -16 -11 -29 -17 -29
-25 0 -132 -62 -171 -99 -59 -56 -140 -111 -163 -111 -12 0 -36 -18 -58 -45
-20 -25 -48 -48 -63 -51 -97 -22 -139 -40 -113 -51 37 -15 -26 -74 -131 -122
-49 -21 -65 -34 -61 -45 4 -10 -6 -20 -31 -31 -19 -10 -39 -15 -42 -11 -4 3
-23 -10 -44 -30 -36 -35 -37 -37 -32 -98 6 -70 47 -156 96 -204 37 -36 140
-92 169 -92 33 0 55 -18 72 -59 30 -76 24 -128 -27 -237 -52 -112 -81 -152
-123 -174 -16 -8 -31 -18 -34 -21 -8 -9 -72 -39 -85 -39 -37 0 -139 -151 -216
-320 -77 -169 -81 -174 -135 -201 -62 -29 -141 -93 -157 -127 -8 -15 -22 -56
-31 -92 -10 -36 -33 -90 -52 -122 -19 -31 -34 -60 -34 -65 0 -4 -12 -31 -27
-58 -23 -42 -28 -66 -31 -147 -4 -88 -3 -98 13 -98 10 0 41 23 68 51 57 56 83
59 113 14 21 -33 29 -106 15 -133 -17 -31 2 -97 64 -227 29 -60 60 -135 69
-167 19 -67 21 -218 5 -319 l-12 -69 44 -92 43 -93 6 -170 c5 -178 4 -171 63
-275 17 -30 30 -74 38 -134 14 -101 7 -158 -41 -350 -15 -62 -31 -142 -35
-178 -8 -72 3 -105 55 -165 46 -52 54 -92 35 -165 -9 -35 -31 -89 -50 -121
-19 -32 -35 -62 -35 -67 0 -4 -7 -10 -14 -13 -20 -8 -45 -57 -62 -123 -7 -30
-36 -100 -64 -158 -27 -57 -50 -107 -50 -110 0 -4 -11 -31 -25 -60 -37 -77
-130 -329 -155 -419 -12 -44 -34 -140 -50 -215 -45 -221 -70 -325 -81 -351 -5
-13 -14 -73 -20 -133 -6 -60 -19 -141 -30 -181 -10 -40 -26 -103 -34 -142 -10
-44 -28 -89 -49 -120 -38 -56 -70 -138 -81 -205 -8 -51 -40 -103 -102 -168
-62 -64 -104 -157 -109 -245 -5 -70 -4 -73 33 -128 143 -211 145 -213 138
-239 -3 -14 -10 -74 -14 -135 -9 -114 -20 -154 -103 -350 -42 -100 -45 -104
-75 -116 -37 -14 -70 -100 -90 -237 -21 -147 -16 -170 66 -280 71 -95 108
-125 181 -146 73 -20 367 -82 455 -96 79 -12 125 -28 125 -43 0 -5 9 -2 21 9
15 13 38 20 78 21 396 14 475 23 516 53 6 4 30 11 54 15 44 7 187 64 226 89
11 8 41 17 65 21 25 4 50 11 55 15 35 26 171 49 330 56 33 2 76 7 95 13 19 6
60 17 90 24 86 23 111 35 157 77 23 22 51 40 62 40 10 0 40 10 67 22 41 18 84
24 269 35 269 17 364 26 390 40 11 6 38 14 60 18 27 4 56 22 93 56 64 58 96
63 169 23 51 -27 49 -27 242 -6 73 8 100 31 67 55 -11 8 -16 19 -12 25 12 20
34 13 48 -14 14 -28 57 -47 136 -59 26 -4 55 -11 64 -16 18 -10 206 14 236 30
10 5 47 12 84 16 37 3 70 11 73 15 3 5 15 5 28 0 20 -9 238 -32 297 -32 14 0
160 5 325 11 312 11 321 12 401 60 49 30 116 41 334 58 324 24 392 26 413 11
24 -18 36 -76 37 -175 0 -104 27 -179 81 -228 22 -19 46 -35 55 -35 8 0 31
-12 50 -27 l35 -26 152 7 c84 4 222 6 307 5 272 -3 354 -2 411 6 35 4 64 3 75
-3 10 -5 27 -7 38 -2 12 4 30 4 41 0 11 -4 30 -4 42 1 12 4 34 4 50 -1 43 -13
142 -32 203 -39 49 -5 60 -11 94 -48 34 -38 40 -41 64 -31 15 5 119 17 232 25
113 8 250 18 305 22 55 5 150 9 211 10 100 1 117 4 155 26 24 14 52 25 62 25
9 0 26 5 36 11 13 9 26 9 49 1 21 -7 42 -8 64 -1 18 5 95 12 171 16 76 3 140
10 143 15 7 11 54 10 54 -2 0 -14 44 -12 58 3 9 8 84 14 265 19 271 7 525 22
535 33 4 4 9 59 11 122 l3 116 -53 -7 c-165 -19 -248 -32 -255 -38 -4 -5 -41
-8 -83 -9 -42 0 -123 -5 -181 -10 -243 -24 -295 -28 -500 -43 -118 -9 -278
-23 -355 -31 -77 -9 -264 -20 -415 -25 -151 -4 -287 -13 -302 -19 -19 -7 -29
-7 -34 0 -4 7 -88 8 -247 5 -339 -8 -532 -21 -597 -41 -78 -24 -246 -25 -329
-2 -51 15 -99 18 -245 17 -204 -1 -251 6 -310 46 -51 36 -95 116 -76 140 10
12 12 66 6 247 -20 660 -26 834 -31 852 -2 11 -9 95 -15 187 -6 92 -17 198
-26 235 -38 163 -54 385 -54 748 0 193 -5 402 -11 465 -6 63 -12 183 -14 266
-3 141 -5 158 -39 262 -34 104 -36 123 -46 309 -28 547 -36 651 -66 906 l-7
57 131 0 c72 0 142 -4 157 -10 18 -7 31 -6 45 2 15 10 27 10 53 0 43 -15 922
-17 932 -2 3 6 55 10 118 11 62 0 150 5 197 10 47 5 182 14 300 19 118 6 233
12 255 15 40 4 427 25 565 30 652 25 1236 63 1313 87 27 8 44 8 61 0 13 -6 27
-7 32 -2 5 5 32 10 59 12 47 3 50 5 53 33 5 40 -19 56 -77 49 -25 -3 -59 -10
-74 -16 -20 -8 -31 -8 -40 1 -13 13 -54 15 -59 2 -3 -9 -95 -18 -428 -41 -74
-6 -162 -14 -195 -20 -74 -12 -317 -13 -330 -1 -10 8 -88 2 -261 -19 -44 -6
-134 -10 -200 -11 -121 -1 -273 -12 -332 -24 -19 -5 -38 -3 -46 4 -10 8 -20 7
-42 -4 -17 -9 -56 -15 -96 -15 -44 0 -68 -4 -71 -12 -3 -10 -7 -10 -17 -1 -9
8 -20 8 -42 1 -22 -8 -40 -7 -68 2 -30 10 -44 10 -74 -1 -29 -11 -43 -11 -71
0 -47 17 -190 18 -209 1 -11 -8 -28 -10 -53 -5 -21 4 -63 6 -93 6 -55 -1 -80
-1 -430 1 -102 0 -202 -3 -224 -7 -27 -5 -41 -4 -46 6 -7 10 -24 10 -92 0 -82
-13 -340 -10 -436 5 -28 4 -48 2 -55 -5 -6 -6 -21 -11 -34 -11 -16 0 -23 -6
-23 -19 0 -53 -45 -23 -74 49 l-17 44 38 32 c21 18 53 35 71 38 94 17 102 18
102 7 0 -22 130 -2 197 31 16 8 26 8 36 -1 9 -7 94 -13 246 -18 212 -6 231 -8
231 -24 0 -28 11 -29 64 -3 37 18 53 21 63 13 10 -9 17 -8 28 1 13 11 20 11
39 0 25 -13 51 -11 183 11 63 11 75 11 90 -3 18 -16 149 -42 165 -32 15 9 8
-19 -9 -38 -17 -19 -16 -20 7 -38 21 -16 28 -17 55 -6 47 20 149 34 284 41
143 7 181 21 181 67 0 33 -29 44 -88 33 -63 -12 -293 -17 -322 -6 -19 6 -31 6
-39 -2 -20 -20 -41 16 -52 87 -13 82 -9 96 31 96 17 0 63 9 103 21 111 32 170
40 291 37 l111 -3 8 -99 c8 -111 24 -149 60 -144 16 2 23 11 25 31 2 18 11 31
25 37 30 11 136 28 225 36 40 4 75 11 78 15 8 13 111 11 133 -3 15 -9 29 -9
58 0 21 6 98 13 171 16 72 3 141 10 151 16 11 5 50 10 88 11 37 0 104 5 148
10 44 6 121 13 170 17 85 7 90 8 93 31 l4 24 -79 -6 c-43 -4 -130 -10 -193
-13 -63 -3 -122 -8 -130 -12 -22 -9 -147 -15 -300 -13 -118 1 -260 0 -555 -3
l-80 -1 -6 65 c-21 211 -39 257 -146 369 -40 41 -77 85 -83 96 -14 27 -87 65
-123 65 -57 0 -41 62 21 80 20 5 50 10 66 10 24 0 46 17 113 86 80 83 83 88
83 133 0 27 -8 62 -20 84 -12 21 -34 77 -50 125 -33 100 -88 176 -134 186 -16
3 -60 6 -98 6 -80 0 -147 18 -239 65 -103 53 -169 66 -247 50 -20 -5 -38 -3
-46 5 -11 9 -20 9 -37 -1 -48 -25 -359 29 -359 64 0 4 -6 7 -14 7 -7 0 -19 6
-25 14 -9 11 -2 22 34 53 26 22 75 55 111 73 35 18 64 36 64 40 0 5 14 12 32
15 35 8 93 38 121 63 20 18 55 39 80 48 9 3 17 10 17 15 0 5 13 9 29 9 50 0
91 20 91 44 0 12 5 27 12 34 17 17 106 15 124 -3 19 -18 53 -95 54 -118 0 -10
9 -40 20 -66 21 -49 61 -81 99 -81 12 0 21 -4 21 -10 0 -17 30 -11 52 10 11
10 35 22 52 26 47 9 123 61 204 139 l74 71 -24 39 c-12 21 -62 79 -111 128
-85 87 -148 181 -163 242 -12 50 -54 115 -75 115 -10 0 -19 4 -19 9 0 5 -12
11 -27 14 -16 3 -38 15 -50 27 -13 11 -37 23 -55 27 -18 3 -50 21 -70 39 -51
46 -85 67 -97 60 -5 -4 -21 5 -35 19 -21 21 -35 25 -81 25 -77 0 -111 -20
-126 -72 -17 -64 -3 -96 56 -128 33 -17 58 -40 72 -66 25 -44 29 -74 10 -74
-7 0 -30 -23 -51 -50 -21 -28 -49 -53 -62 -56 -28 -7 -44 -32 -44 -66 0 -13
-3 -18 -8 -12 -17 27 -50 24 -116 -11 -37 -19 -77 -35 -88 -35 -12 0 -19 -3
-15 -6 6 -7 -16 -34 -28 -34 -4 0 -26 -14 -51 -31 -25 -17 -70 -42 -102 -56
-31 -13 -64 -30 -72 -38 -8 -7 -27 -15 -42 -19 -16 -3 -28 -10 -28 -15 0 -5
-7 -17 -16 -25 -14 -15 -18 -15 -47 1 -17 10 -38 24 -45 31 -7 6 -26 12 -41
12 -15 0 -36 9 -45 19 -17 18 -16 20 3 26 37 11 24 44 -45 108 -36 34 -71 71
-76 81 -6 11 -11 52 -12 93 -2 61 -6 76 -24 93 -12 12 -22 25 -22 31 0 19 -65
49 -108 49 -60 0 -101 20 -161 78 l-52 51 7 85 7 86 -34 30 c-19 16 -52 45
-74 64 l-39 34 24 35 c14 20 41 45 61 56 64 37 71 86 32 258 -14 59 -14 79 -4
112 13 44 56 92 98 112 16 6 37 26 48 43 11 17 42 46 69 63 91 62 119 117 122
244 2 109 24 176 69 205 43 28 203 223 210 255 4 16 11 31 16 34 5 4 9 23 9
43 0 21 6 61 14 90 13 51 12 55 -14 110 -16 34 -30 86 -34 124 -7 64 -7 67 24
102 18 20 38 36 45 36 8 0 20 9 28 20 23 34 66 50 96 37 14 -6 79 -11 143 -11
109 0 121 2 175 29 32 16 60 33 61 37 5 11 38 10 83 -3 29 -9 45 -9 66 0 42
18 140 118 187 190 36 57 45 65 76 68 135 11 197 19 208 26 7 5 12 29 12 56 0
43 4 53 43 92 63 64 86 81 149 113 35 17 75 49 105 82 26 30 76 85 111 121 71
75 86 99 103 169 7 27 18 58 26 69 23 34 16 141 -16 230 -51 143 -60 169 -76
230 -34 124 -49 161 -86 218 -22 32 -49 82 -61 110 -21 51 -94 158 -112 166
-6 2 -21 16 -35 31 -28 29 -170 122 -236 155 -22 11 -53 29 -70 41 -59 41
-201 103 -254 110 -42 5 -63 15 -98 45 -24 22 -45 39 -46 39 -1 0 -10 -5 -19
-11z m157 -169 c3 -5 14 -10 23 -10 9 0 32 -9 51 -21 27 -16 31 -23 20 -30
-23 -14 -95 -11 -109 6 -7 8 -18 15 -24 15 -6 0 -18 5 -26 10 -13 8 -12 11 5
24 23 18 51 20 60 6z m238 -118 c23 -15 54 -33 70 -40 15 -6 27 -19 27 -28 0
-18 5 -18 -106 12 -61 16 -62 16 -94 -7 -28 -21 -45 -24 -138 -27 -59 -2 -105
-1 -102 1 15 16 82 57 92 57 6 0 26 5 44 12 26 9 38 9 57 -1 32 -17 61 -7 75
24 15 32 24 31 75 -3z m-853 -12 c0 -5 -4 -10 -10 -10 -5 0 -10 5 -10 10 0 6
5 10 10 10 6 0 10 -4 10 -10z m100 -10 c0 -5 -4 -10 -10 -10 -5 0 -10 5 -10
10 0 6 5 10 10 10 6 0 10 -4 10 -10z m50 6 c0 -11 -19 -15 -25 -6 -3 5 1 10 9
10 9 0 16 -2 16 -4z m-170 -62 c0 -19 -16 -18 -24 2 -11 27 -7 37 9 24 8 -7
15 -19 15 -26z m1005 6 c3 -5 -1 -10 -10 -10 -9 0 -13 5 -10 10 3 6 8 10 10
10 2 0 7 -4 10 -10z m-95 -62 c0 -13 -19 -9 -45 8 -14 9 -23 20 -20 25 6 9 65
-21 65 -33z m-32 -48 c50 -25 66 -39 83 -72 12 -23 21 -60 21 -81 -1 -22 8
-57 19 -79 l19 -38 -34 0 c-41 0 -50 -10 -41 -48 4 -22 14 -30 50 -41 50 -15
89 -42 106 -73 17 -31 -4 -45 -35 -24 -14 9 -41 16 -61 16 -29 0 -35 -4 -35
-21 0 -12 8 -23 20 -26 36 -10 62 -143 28 -143 -6 0 -27 13 -47 29 -44 35 -72
47 -123 56 -29 4 -38 11 -38 25 0 23 4 24 30 8 50 -31 50 53 0 95 -23 20 -25
25 -12 33 12 8 13 14 2 34 -23 45 -42 60 -76 60 -23 0 -37 6 -44 19 -26 49 -1
64 67 39 25 -9 36 -9 45 0 15 15 -4 37 -53 62 -38 20 -58 57 -34 66 7 3 34 -2
59 -10 27 -9 58 -13 77 -9 l31 6 -38 19 c-75 37 -213 55 -256 34 -10 -4 -18
-4 -18 1 0 4 23 20 51 35 41 22 58 26 93 22 39 -6 45 -4 51 15 8 28 19 27 93
-9z m313 -26 c6 -8 10 -17 7 -19 -6 -6 -88 55 -88 66 0 10 64 -26 81 -47z
m-1051 -34 c0 -5 -4 -10 -10 -10 -5 0 -10 5 -10 10 0 6 5 10 10 10 6 0 10 -4
10 -10z m-321 -16 c42 -9 39 -21 -6 -26 -21 -3 -46 -8 -55 -12 -14 -6 -18 -3
-18 11 0 34 16 39 79 27z m721 -40 c0 -38 -14 -45 -30 -14 -8 14 -7 25 2 39
16 27 28 17 28 -25z m-250 6 c10 0 11 -3 3 -11 -14 -14 -53 6 -53 28 0 15 2
15 18 0 10 -10 25 -17 32 -17z m180 -10 c0 -5 -2 -10 -4 -10 -3 0 -8 5 -11 10
-3 6 -1 10 4 10 6 0 11 -4 11 -10z m-630 -38 c0 -16 -41 -52 -60 -52 -30 0
-24 13 18 37 43 26 42 25 42 15z m840 -23 c0 -6 -4 -7 -10 -4 -5 3 -10 11 -10
16 0 6 5 7 10 4 6 -3 10 -11 10 -16z m-728 -31 c4 -11 -62 -88 -76 -88 -10 0
15 55 36 78 24 25 34 28 40 10z m-202 -45 l-1 -38 -14 25 c-19 33 -19 50 0 50
11 0 15 -11 15 -37z m540 3 c0 -3 -4 -8 -10 -11 -5 -3 -10 -1 -10 4 0 6 5 11
10 11 6 0 10 -2 10 -4z m-231 -33 c-73 -97 -137 -126 -94 -43 16 31 58 59 89
60 16 0 17 -2 5 -17z m1251 -39 c0 -8 -7 -14 -15 -14 -15 0 -21 21 -9 33 10 9
24 -2 24 -19z m-1380 -14 c0 -5 -4 -10 -10 -10 -5 0 -10 5 -10 10 0 6 5 10 10
10 6 0 10 -4 10 -10z m1480 -30 c0 -5 -2 -10 -4 -10 -3 0 -8 5 -11 10 -3 6 -1
10 4 10 6 0 11 -4 11 -10z m-636 -16 c23 -9 20 -23 -4 -17 -11 3 -20 9 -20 14
0 11 3 11 24 3z m-307 -20 c3 -8 0 -21 -6 -27 -10 -9 -16 -8 -27 7 -8 11 -14
23 -14 28 0 15 41 8 47 -8z m783 -85 c15 -27 -8 -35 -32 -11 -22 22 -17 45 8
35 8 -3 19 -14 24 -24z m-1612 2 c3 -8 -1 -12 -9 -9 -7 2 -15 10 -17 17 -3 8
1 12 9 9 7 -2 15 -10 17 -17z m1762 5 c0 -20 -27 -40 -33 -24 -2 7 -2 19 1 26
6 16 32 15 32 -2z m-1274 -14 c17 -11 34 -48 34 -73 0 -26 27 -59 47 -59 14 0
44 59 57 113 12 49 23 28 30 -58 10 -127 1 -170 -46 -216 -32 -31 -39 -44 -36
-70 4 -43 44 -72 100 -72 48 0 88 17 135 60 18 16 67 47 109 68 74 38 77 38
127 26 48 -11 172 -34 258 -48 29 -4 40 -13 60 -49 21 -38 22 -48 12 -75 -7
-18 -10 -36 -7 -41 13 -21 85 -57 145 -74 77 -21 119 -40 119 -56 0 -6 -14
-34 -30 -63 -21 -36 -39 -55 -56 -59 -15 -4 -41 -17 -58 -30 -17 -13 -39 -26
-48 -29 -17 -6 -98 -103 -98 -118 0 -4 -18 -13 -40 -19 -21 -6 -42 -15 -45
-20 -3 -6 -26 -10 -50 -10 -37 0 -51 -7 -97 -45 -51 -43 -78 -81 -112 -153 -9
-19 -30 -52 -47 -73 -30 -38 -34 -40 -83 -37 -41 2 -52 7 -55 22 -2 11 -14 38
-28 59 -22 35 -23 42 -12 69 11 28 11 33 -10 49 -29 23 -69 24 -93 2 -22 -20
-24 -108 -3 -168 15 -43 10 -85 -10 -85 -7 0 -24 6 -38 13 -19 10 -23 17 -16
28 5 8 9 20 9 27 0 22 -19 12 -35 -18 -20 -39 -41 -38 -54 3 -23 67 -97 113
-132 81 -26 -23 -24 -48 5 -76 27 -25 38 -79 19 -85 -7 -3 -32 14 -56 36 l-44
41 -26 -20 c-20 -16 -27 -31 -29 -68 l-3 -47 -82 -3 c-78 -3 -83 -1 -107 24
-14 15 -28 45 -31 66 -4 22 -16 64 -27 95 -10 30 -24 94 -29 142 -13 107 -42
154 -92 149 -25 -2 -33 -9 -40 -33 -14 -47 -22 -59 -46 -71 -13 -7 -40 -48
-67 -102 -24 -50 -51 -97 -60 -106 -24 -24 -81 -20 -164 12 -8 3 -19 6 -25 6
-17 2 -31 43 -49 143 -10 54 -25 115 -34 136 -12 30 -13 42 -3 63 7 16 17 24
26 20 21 -8 25 5 35 102 5 48 12 104 16 125 5 33 4 37 -15 37 -18 0 -20 4 -15
33 14 75 65 241 87 277 24 41 77 89 77 71 0 -17 17 -13 58 12 33 21 111 47
183 61 15 3 46 22 69 41 43 36 96 46 129 26 17 -11 10 -118 -14 -198 -14 -48
-14 -55 5 -103 11 -28 20 -64 20 -81 0 -29 -2 -30 -31 -24 -28 6 -36 2 -80
-44 -40 -41 -49 -58 -49 -86 0 -19 4 -35 9 -35 10 0 8 -59 -5 -154 -6 -41 -4
-51 11 -63 11 -7 22 -13 27 -13 19 0 38 77 38 154 l0 82 58 67 57 66 90 -1 89
-1 13 29 c6 16 9 45 7 64 -6 39 22 80 55 80 23 0 44 24 39 46 -4 23 -39 43
-45 27 -3 -7 -22 -17 -42 -23 -30 -8 -40 -16 -47 -41 -13 -44 -33 -55 -70 -38
-24 12 -30 22 -37 67 -8 51 -7 57 27 112 20 32 36 61 36 65 0 3 14 28 32 54
29 46 34 49 81 54 27 2 52 9 56 14 11 19 86 29 107 15z m300 -9 c19 -25 17
-33 -6 -33 -15 0 -20 7 -20 25 0 29 8 32 26 8z m-211 -23 c3 -5 -1 -10 -9 -10
-9 0 -16 5 -16 10 0 6 4 10 9 10 6 0 13 -4 16 -10z m-2285 -10 c0 -5 -5 -10
-11 -10 -5 0 -7 5 -4 10 3 6 8 10 11 10 2 0 4 -4 4 -10z m170 -20 c0 -5 -5
-10 -11 -10 -5 0 -7 5 -4 10 3 6 8 10 11 10 2 0 4 -4 4 -10z m2415 0 c-3 -5
-11 -10 -16 -10 -6 0 -7 5 -4 10 3 6 11 10 16 10 6 0 7 -4 4 -10z m-2595 -20
c11 -7 8 -11 -15 -20 -16 -6 -33 -17 -37 -23 -6 -9 -8 -8 -8 2 0 15 28 51 39
51 3 0 13 -4 21 -10z m2520 -6 c0 -8 -5 -12 -10 -9 -6 4 -8 11 -5 16 9 14 15
11 15 -7z m-2320 -4 c0 -5 -4 -10 -10 -10 -5 0 -10 5 -10 10 0 6 5 10 10 10 6
0 10 -4 10 -10z m80 -25 c0 -8 -4 -15 -10 -15 -5 0 -10 7 -10 15 0 8 5 15 10
15 6 0 10 -7 10 -15z m901 -20 c-36 -41 -81 -126 -81 -152 0 -10 -7 -28 -15
-41 -9 -12 -23 -61 -31 -109 -8 -49 -18 -96 -24 -105 -32 -57 -27 -308 9 -458
41 -167 53 -352 30 -461 -11 -49 -13 -52 -65 -76 -56 -26 -78 -49 -112 -123
-25 -53 -96 -145 -134 -173 -14 -11 -34 -17 -42 -14 -24 9 -20 55 13 154 24
72 34 128 50 303 18 184 20 260 15 515 -4 218 -2 325 8 390 7 50 13 122 13
160 0 42 5 75 13 83 6 7 12 24 12 36 0 13 5 37 11 55 10 28 15 31 39 26 16 -3
31 -2 35 4 8 14 62 14 70 1 9 -15 98 -12 136 5 19 8 45 14 58 15 23 0 23 0 -8
-35z m2009 -12 c0 -24 -25 -9 -28 17 -3 21 -2 22 12 11 9 -7 16 -20 16 -28z
m-110 -28 c0 -8 -4 -15 -10 -15 -5 0 -10 7 -10 15 0 8 5 15 10 15 6 0 10 -7
10 -15z m-2380 -41 c0 -13 -5 -24 -11 -24 -5 0 -3 -10 5 -22 19 -27 22 -166 5
-249 -14 -70 -14 -326 0 -362 15 -38 14 -39 -11 -35 -24 3 -26 10 -44 188 -3
30 -11 61 -17 68 -15 19 -155 124 -185 140 -19 9 -28 9 -38 1 -19 -16 -18 -27
10 -64 13 -17 29 -50 36 -73 6 -25 21 -49 35 -58 14 -9 25 -26 25 -37 0 -11 7
-46 16 -78 l16 -57 -32 -29 -32 -28 -8 -190 c-12 -259 -44 -425 -106 -547 -13
-26 -24 -59 -24 -73 0 -14 -9 -34 -20 -45 -28 -28 -37 -56 -46 -132 -4 -34
-16 -85 -26 -113 -16 -39 -19 -64 -14 -114 5 -59 4 -63 -10 -49 -9 8 -18 35
-21 59 -3 24 -19 63 -34 86 -16 23 -29 55 -29 71 0 16 -4 53 -10 81 -8 43 -7
55 5 68 16 15 20 51 7 69 -11 17 -49 34 -64 29 -7 -3 -23 -23 -36 -45 -30 -52
-37 -150 -23 -318 11 -135 16 -154 73 -265 30 -59 32 -93 6 -124 -16 -19 -27
-16 -40 12 -15 34 -32 31 -46 -8 -28 -79 -4 -244 57 -391 22 -54 55 -114 71
-133 17 -18 30 -37 30 -42 0 -4 18 -17 40 -30 35 -20 39 -26 34 -49 -11 -42
-46 -98 -68 -108 -32 -14 -64 -70 -91 -159 -32 -105 -32 -145 1 -184 44 -53
84 -31 84 47 0 54 18 95 43 100 10 2 33 -8 51 -22 18 -14 58 -37 89 -51 85
-41 93 -54 100 -168 l7 -99 52 -66 c28 -37 61 -77 73 -88 33 -32 97 -71 132
-78 26 -6 31 -12 36 -46 3 -27 -1 -51 -13 -74 -23 -46 -15 -84 21 -105 16 -9
29 -19 29 -23 0 -5 16 -8 35 -8 23 0 37 -6 44 -18 5 -10 29 -32 53 -48 54 -36
98 -80 98 -97 0 -8 -14 -33 -30 -56 -17 -23 -33 -55 -37 -72 -3 -17 -12 -33
-19 -36 -7 -3 -39 -38 -71 -80 -52 -68 -205 -213 -224 -213 -5 0 -47 30 -94
67 -97 76 -101 88 -60 165 14 26 25 61 25 78 0 28 -3 30 -35 30 -26 0 -39 -6
-51 -24 -8 -14 -29 -28 -45 -31 -16 -4 -62 -22 -101 -42 -82 -39 -83 -40 -188
-25 -64 9 -79 15 -102 42 -19 20 -28 41 -28 63 0 23 -12 47 -40 82 -53 65
-121 124 -142 125 -9 0 -20 4 -23 10 -3 5 -24 14 -45 20 -22 6 -48 19 -57 28
-10 10 -45 28 -78 42 -106 42 -137 77 -170 195 -22 76 -46 124 -78 153 -14 13
-37 43 -52 66 -14 23 -42 52 -61 65 -55 38 -165 161 -188 211 -19 41 -21 61
-20 235 1 105 3 240 5 300 2 62 -4 177 -14 265 -22 198 -21 249 3 392 12 72
17 135 13 163 -3 25 0 85 6 133 11 79 10 96 -9 187 -12 55 -26 125 -31 156
-16 106 -72 196 -105 169 -15 -13 -25 -88 -14 -109 22 -41 33 -94 40 -190 6
-82 4 -109 -8 -133 l-14 -30 -18 39 c-10 21 -34 73 -54 115 -66 141 -88 229
-87 345 0 56 3 114 7 128 4 18 2 27 -11 31 -28 11 -44 -17 -59 -103 -17 -101
-20 -106 -49 -90 -44 24 -56 65 -34 110 9 18 26 61 39 96 l23 64 60 20 c84 28
108 39 127 62 57 66 135 182 155 231 13 32 29 65 37 73 8 9 27 41 43 71 24 45
43 64 107 108 43 28 80 52 83 52 4 0 29 18 57 39 63 49 212 126 260 135 27 5
43 18 68 52 17 25 47 54 65 65 19 12 39 26 46 33 6 6 30 20 52 31 22 11 42 22
45 25 3 3 37 21 75 40 39 18 75 41 82 49 10 14 12 12 18 -11 9 -37 3 -44 -58
-62 -61 -18 -87 -41 -87 -78 0 -27 16 -38 54 -38 13 0 31 -9 41 -20 11 -12 46
-37 79 -57 34 -19 70 -46 81 -58 21 -23 113 -95 167 -130 16 -11 49 -37 73
-57 70 -63 101 -43 48 30 -56 76 -108 132 -123 132 -20 0 -84 60 -73 70 4 4
33 17 63 28 88 32 110 44 110 60 0 12 -12 13 -67 7 -69 -7 -160 -31 -177 -46
-17 -16 -42 -10 -66 16 -13 14 -29 25 -37 25 -25 0 -13 20 25 38 55 28 170 45
245 37 43 -5 67 -3 71 4 4 6 27 11 52 11 l45 0 -22 40 c-15 27 -26 37 -33 30
-14 -14 -79 -13 -94 2 -9 9 -19 7 -44 -6 -23 -12 -50 -17 -88 -14 l-55 3 42
28 c38 24 52 27 128 27 48 0 95 -5 106 -11 14 -7 30 -7 48 -1 20 7 32 6 46 -4
10 -8 27 -14 38 -14 10 0 38 -12 63 -26 l44 -26 0 40 c0 23 5 42 13 45 19 7
27 -2 27 -29z m2600 -25 c26 -51 25 -63 -7 -78 -16 -8 -35 -16 -43 -20 -8 -4
-26 -4 -40 0 -14 4 -42 7 -62 8 -21 1 -38 3 -38 6 0 14 54 85 64 85 7 0 27 11
45 24 40 30 56 25 81 -25z m300 23 c0 -15 -2 -15 -10 -2 -13 20 -13 33 0 25 6
-3 10 -14 10 -23z m-3895 -2 c3 -5 1 -10 -4 -10 -6 0 -11 5 -11 10 0 6 2 10 4
10 3 0 8 -4 11 -10z m-228 -42 c-3 -8 -6 -5 -6 6 -1 11 2 17 5 13 3 -3 4 -12
1 -19z m3953 2 c0 -5 -7 -10 -16 -10 -8 0 -12 5 -9 10 3 6 10 10 16 10 5 0 9
-4 9 -10z m-3800 -51 c0 -4 -24 -30 -52 -58 -47 -45 -52 -53 -41 -70 11 -18
10 -19 -21 -14 -20 3 -36 1 -40 -6 -4 -6 -16 -11 -26 -11 -10 0 -23 -8 -29
-17 -8 -14 -12 -15 -22 -6 -10 10 -5 16 19 30 18 10 32 21 32 24 0 4 34 40 75
80 41 40 75 80 75 88 1 10 6 7 15 -9 8 -14 14 -28 15 -31z m1175 -29 c3 -5 1
-10 -4 -10 -6 0 -11 5 -11 10 0 6 2 10 4 10 3 0 8 -4 11 -10z m-1478 -62 c-3
-8 -6 -5 -6 6 -1 11 2 17 5 13 3 -3 4 -12 1 -19z m-37 2 c0 -5 -4 -10 -10 -10
-5 0 -10 5 -10 10 0 6 5 10 10 10 6 0 10 -4 10 -10z m2590 0 c0 -5 -4 -10 -10
-10 -5 0 -10 5 -10 10 0 6 5 10 10 10 6 0 10 -4 10 -10z m1490 -19 c0 -13 -77
-22 -118 -14 -35 6 -36 7 -12 14 36 10 130 11 130 0z m-4325 -13 c36 -16 100
-78 81 -78 -8 0 -18 5 -21 10 -3 6 -15 10 -27 10 -11 0 -22 8 -25 20 -4 15
-11 18 -35 13 -28 -6 -30 -5 -19 16 14 25 13 24 46 9z m319 3 c9 -14 -2 -35
-26 -50 -16 -10 -23 -10 -26 -2 -2 6 -10 11 -18 11 -17 0 -18 22 -2 38 14 14
64 16 72 3z m1381 -21 c3 -5 1 -10 -4 -10 -6 0 -11 5 -11 10 0 6 2 10 4 10 3
0 8 -4 11 -10z m-1575 -120 c0 -5 -5 -10 -11 -10 -5 0 -7 5 -4 10 3 6 8 10 11
10 2 0 4 -4 4 -10z m-85 -80 c-3 -5 -13 -10 -21 -10 -8 0 -14 5 -14 10 0 6 9
10 21 10 11 0 17 -4 14 -10z m1645 -6 c0 -8 -5 -12 -10 -9 -6 4 -8 11 -5 16 9
14 15 11 15 -7z m-1679 -30 c10 -13 10 -17 -2 -25 -8 -5 -16 -9 -19 -9 -3 0
-11 4 -19 9 -12 8 -12 12 -2 25 8 9 17 16 21 16 4 0 13 -7 21 -16z m-301 -24
c0 -5 -2 -10 -4 -10 -3 0 -8 5 -11 10 -3 6 -1 10 4 10 6 0 11 -4 11 -10z m73
-55 c18 -13 18 -15 -1 -57 -18 -41 -85 -129 -103 -136 -12 -5 2 69 20 104 62
118 55 111 84 89z m-346 -101 c-3 -3 -12 -4 -19 -1 -8 3 -5 6 6 6 11 1 17 -2
13 -5z m2612 -50 c-12 -28 -13 -28 -17 -6 -2 13 2 30 9 39 18 21 22 2 8 -33z
m-2442 -21 c-4 -17 -4 -17 -12 0 -4 9 -4 25 0 35 8 16 8 16 12 0 3 -10 3 -26
0 -35z m-37 -8 c0 -14 -4 -25 -10 -25 -5 0 -10 11 -10 25 0 14 5 25 10 25 6 0
10 -11 10 -25z m10 -80 c0 -14 -4 -25 -10 -25 -11 0 -14 33 -3 43 11 11 13 8
13 -18z m-210 5 c0 -5 -4 -10 -10 -10 -5 0 -10 5 -10 10 0 6 5 10 10 10 6 0
10 -4 10 -10z m241 -76 c-11 -14 -27 -49 -37 -77 -9 -29 -24 -63 -32 -76 -16
-24 -23 -41 -86 -214 -52 -142 -58 -151 -94 -128 -11 7 -4 32 32 124 25 64 56
131 69 150 13 19 29 49 35 66 7 17 17 45 24 63 7 17 26 50 44 73 17 23 35 53
39 66 l8 24 8 -24 c7 -17 4 -29 -10 -47z m126 -6 c-3 -8 -6 -5 -6 6 -1 11 2
17 5 13 3 -3 4 -12 1 -19z m-72 -18 c3 -5 -1 -10 -9 -10 -9 0 -16 5 -16 10 0
6 4 10 9 10 6 0 13 -4 16 -10z m-455 -40 c0 -5 -2 -10 -4 -10 -3 0 -8 5 -11
10 -3 6 -1 10 4 10 6 0 11 -4 11 -10z m80 -80 c0 -5 -5 -10 -11 -10 -5 0 -7 5
-4 10 3 6 8 10 11 10 2 0 4 -4 4 -10z m4146 -57 c-10 -10 -19 5 -10 18 6 11 8
11 12 0 2 -7 1 -15 -2 -18z m-4131 7 c3 -5 2 -10 -4 -10 -5 0 -13 5 -16 10 -3
6 -2 10 4 10 5 0 13 -4 16 -10z m2275 0 c0 -5 -4 -10 -10 -10 -5 0 -10 5 -10
10 0 6 5 10 10 10 6 0 10 -4 10 -10z m-2287 -47 c4 -3 0 -15 -9 -24 -16 -17
-16 -19 0 -25 9 -3 23 -1 31 6 18 15 19 7 5 -21 -13 -23 -28 -24 -52 -2 -18
16 -24 53 -11 66 8 9 28 9 36 0z m3268 -26 c-6 -6 -11 -20 -11 -32 0 -11 -22
-52 -50 -90 -51 -71 -70 -117 -90 -218 -26 -129 -95 -129 -165 1 -39 71 -81
122 -101 122 -6 0 -17 7 -25 16 -10 13 -9 24 5 64 10 27 21 70 24 96 l7 48 32
-48 c18 -27 42 -55 53 -63 12 -8 28 -32 36 -53 8 -20 26 -47 39 -58 l25 -22
25 38 c30 45 31 58 4 65 -12 3 -18 10 -15 16 4 6 13 8 20 5 7 -3 37 15 66 40
30 26 58 46 63 46 5 0 18 11 29 25 11 14 24 22 30 19 6 -4 6 -10 -1 -17z
m-931 -42 c0 -8 -7 -15 -15 -15 -16 0 -20 12 -8 23 11 12 23 8 23 -8z m-10
-56 c0 -5 -4 -9 -10 -9 -5 0 -10 7 -10 16 0 8 5 12 10 9 6 -3 10 -10 10 -16z
m-2300 -56 c0 -13 -3 -13 -15 -3 -8 7 -15 16 -15 21 0 5 7 6 15 3 8 -4 15 -13
15 -21z m-130 -58 c0 -18 -37 -38 -56 -31 -19 7 -9 25 20 36 30 13 36 12 36
-5z m329 -85 c5 -25 12 -53 16 -62 4 -11 3 -18 -5 -18 -7 0 -9 -8 -5 -20 7
-23 -8 -26 -45 -7 -21 11 -25 20 -26 62 -1 36 4 57 19 77 25 34 34 27 46 -32z
m2641 16 c0 -3 -4 -8 -10 -11 -5 -3 -10 -1 -10 4 0 6 5 11 10 11 6 0 10 -2 10
-4z m528 -21 c20 -14 44 -25 54 -25 10 0 25 -14 34 -31 16 -31 16 -32 -6 -26
-19 5 -21 2 -17 -19 3 -15 -1 -28 -8 -30 -7 -3 -15 -34 -19 -73 -8 -87 -65
-215 -129 -290 -26 -30 -47 -61 -47 -69 0 -9 -11 -29 -23 -46 -39 -52 -47 -72
-66 -179 -22 -120 -38 -157 -83 -188 -31 -21 -150 -126 -173 -151 -5 -6 -30
-30 -54 -54 l-43 -44 22 -87 c22 -85 24 -188 5 -233 -3 -8 -31 -33 -61 -55
-127 -91 -244 -208 -244 -243 0 -7 7 -24 16 -38 16 -24 16 -26 -6 -49 -13 -14
-28 -25 -34 -25 -19 0 -77 -61 -70 -73 27 -48 46 -57 123 -57 66 0 84 4 138
32 35 18 66 40 69 51 7 22 -11 45 -39 49 -25 3 -36 37 -16 49 10 6 10 10 0 23
-11 13 -11 16 2 16 9 0 18 -4 21 -9 3 -5 23 -7 44 -5 22 3 44 -1 54 -9 16 -13
16 -18 1 -70 -9 -35 -13 -69 -9 -92 6 -30 14 -38 47 -51 21 -9 48 -28 58 -43
11 -15 44 -39 73 -53 29 -15 62 -36 72 -47 11 -12 25 -21 33 -21 31 0 9 -18
-29 -23 -51 -7 -70 2 -96 46 -19 33 -23 34 -93 41 -41 3 -99 8 -129 11 -40 4
-60 2 -73 -9 -17 -13 -18 -16 -2 -40 28 -42 79 -74 131 -81 27 -4 53 -10 58
-13 4 -2 -11 -17 -35 -33 -24 -15 -66 -48 -94 -73 -38 -35 -45 -45 -30 -45 11
0 40 14 65 30 91 58 202 103 277 112 24 3 63 15 88 27 52 25 75 21 75 -13 0
-47 -25 -60 -187 -98 -23 -6 -53 -21 -65 -35 -13 -13 -30 -24 -39 -24 -14 0
-97 -54 -109 -71 -3 -4 -23 -21 -44 -38 -48 -38 -108 -43 -128 -10 -7 11 -37
38 -65 60 -61 46 -63 54 -38 182 18 96 8 121 -56 131 -22 3 -48 10 -57 15 -9
5 -37 15 -62 22 -31 9 -61 29 -97 65 -50 49 -53 56 -53 102 0 31 9 70 24 104
26 58 135 227 161 248 11 9 15 34 15 91 0 43 5 81 10 84 15 9 12 47 -5 69 -8
11 -15 23 -15 27 0 4 26 15 58 24 69 20 105 52 178 162 43 64 65 86 99 102 49
23 71 50 110 139 26 59 27 65 14 94 -15 30 -15 31 38 84 29 29 53 62 53 73 0
11 9 25 20 31 11 6 23 23 27 38 3 15 19 44 34 65 35 48 53 101 45 133 -5 19 2
34 37 72 46 49 114 145 140 197 12 25 28 69 72 203 6 17 11 16 53 -13z m-3744
-42 c-3 -21 -14 -51 -24 -68 -10 -16 -28 -77 -40 -135 -26 -122 -44 -170 -62
-170 -50 0 -51 84 -2 183 20 39 44 81 54 92 10 11 28 46 40 78 24 65 44 77 34
20z m646 31 c0 -3 -5 -14 -10 -25 -16 -28 -32 -23 -18 6 10 22 28 35 28 19z
m-165 -24 c3 -5 2 -10 -4 -10 -5 0 -13 5 -16 10 -3 6 -2 10 4 10 5 0 13 -4 16
-10z m2113 -7 c5 -18 -23 -16 -39 3 -11 14 -10 15 11 12 13 -1 25 -9 28 -15z
m557 7 c3 -5 1 -10 -4 -10 -6 0 -11 5 -11 10 0 6 2 10 4 10 3 0 8 -4 11 -10z
m-3492 -33 c16 -25 11 -43 -13 -48 -40 -7 -65 32 -38 59 18 18 34 15 51 -11z
m584 -87 c-9 -39 -33 -113 -52 -165 -20 -53 -42 -131 -50 -175 -8 -44 -18 -88
-23 -97 -17 -29 -34 21 -29 80 5 51 40 193 57 232 5 11 11 34 15 50 4 17 20
63 37 103 28 67 32 72 46 58 15 -14 14 -22 -1 -86z m223 90 c0 -5 -4 -10 -10
-10 -5 0 -10 5 -10 10 0 6 5 10 10 10 6 0 10 -4 10 -10z m190 -4 c0 -8 -7 -22
-16 -31 -13 -12 -19 -13 -30 -4 -12 10 -10 15 13 30 35 22 33 22 33 5z m66
-25 c-11 -18 -36 -13 -36 7 0 10 3 22 7 26 10 10 37 -20 29 -33z m1814 29 c0
-5 -4 -10 -10 -10 -5 0 -10 5 -10 10 0 6 5 10 10 10 6 0 10 -4 10 -10z m1100
0 c0 -5 -5 -10 -11 -10 -5 0 -7 5 -4 10 3 6 8 10 11 10 2 0 4 -4 4 -10z m-690
-46 c0 -8 -4 -12 -10 -9 -5 3 -10 13 -10 21 0 8 5 12 10 9 6 -3 10 -13 10 -21z
m-3340 -64 c0 -5 -5 -10 -11 -10 -5 0 -7 5 -4 10 3 6 8 10 11 10 2 0 4 -4 4
-10z m3360 -1 c0 -17 -52 -112 -73 -133 -13 -13 -22 -15 -29 -8 -14 14 66 152
87 152 8 0 15 -5 15 -11z m-2280 -60 c0 -9 -7 -22 -15 -29 -13 -11 -15 -7 -15
22 0 19 3 38 7 41 8 9 23 -13 23 -34z m1880 31 c0 -5 -7 -10 -16 -10 -8 0 -12
5 -9 10 3 6 10 10 16 10 5 0 9 -4 9 -10z m-2134 -37 c-10 -10 -19 5 -10 18 6
11 8 11 12 0 2 -7 1 -15 -2 -18z m2897 10 c39 -14 52 -15 67 -5 26 16 50 15
74 -3 25 -19 14 -58 -21 -74 -116 -54 -160 -90 -241 -199 -51 -68 -150 -130
-307 -192 -43 -17 -121 -52 -147 -66 -14 -8 -33 -14 -42 -14 -9 0 -16 -3 -16
-8 0 -4 -17 -16 -37 -27 -21 -10 -58 -33 -83 -50 -70 -49 -80 -51 -80 -10 0
18 4 44 9 57 16 41 78 92 148 122 171 73 241 119 291 193 34 51 43 58 103 78
49 17 80 36 122 76 31 29 57 57 57 62 0 21 30 77 42 77 7 0 35 -8 61 -17z
m-873 -23 c0 -5 -5 -10 -11 -10 -5 0 -7 5 -4 10 3 6 8 10 11 10 2 0 4 -4 4
-10z m-2690 -16 c0 -24 -19 -54 -35 -54 -19 0 -19 6 2 41 19 32 33 38 33 13z
m3008 -18 c4 -28 -18 -104 -50 -172 -13 -28 -31 -48 -56 -60 -79 -40 -197
-127 -206 -151 -4 -9 1 -24 10 -34 15 -17 14 -22 -10 -73 -14 -30 -36 -91 -48
-135 -18 -68 -19 -84 -9 -110 24 -56 48 -52 106 21 22 28 54 58 70 67 17 9 57
35 89 59 33 23 64 42 69 42 6 0 24 11 41 24 17 13 42 27 56 31 14 4 41 18 61
31 20 12 63 32 95 42 33 11 76 27 97 36 41 18 45 11 21 -35 -20 -40 -103 -149
-113 -149 -4 0 -28 -15 -52 -34 -67 -52 -177 -108 -185 -95 -5 8 -10 6 -16 -5
-5 -9 -15 -16 -22 -16 -49 0 -229 -136 -317 -240 -30 -35 -60 -65 -67 -68 -14
-4 -61 43 -78 79 -55 118 -92 214 -84 224 4 6 13 28 20 50 7 22 26 72 43 110
17 39 38 102 47 140 16 67 19 71 71 106 67 45 101 78 164 164 82 111 138 165
171 165 16 0 36 5 44 10 22 14 35 7 38 -24z m-2218 4 c0 -5 -4 -10 -10 -10 -5
0 -10 5 -10 10 0 6 5 10 10 10 6 0 10 -4 10 -10z m-150 -20 c0 -24 -9 -30 -29
-20 -9 5 -24 11 -33 14 -31 9 -19 21 22 22 31 1 40 -2 40 -16z m2699 -23 c1
-5 -3 -5 -9 -2 -5 3 -10 16 -9 28 0 21 1 21 9 2 5 -11 9 -24 9 -28z m-3413
-136 c-7 -76 -59 -310 -75 -338 -14 -23 -14 -15 -12 112 l2 100 -30 20 c-26
17 -31 26 -31 61 0 46 22 76 42 56 7 -7 23 -12 36 -12 18 0 27 9 40 39 24 55
36 39 28 -38z m3174 64 c0 -8 0 -18 1 -22 0 -4 -4 -9 -10 -11 -6 -2 -11 8 -11
22 0 14 5 26 10 26 6 0 10 -7 10 -15z m-2270 -41 c0 -8 -4 -12 -10 -9 -5 3
-10 10 -10 16 0 5 5 9 10 9 6 0 10 -7 10 -16z m-1270 -54 c0 -5 -2 -10 -4 -10
-3 0 -8 5 -11 10 -3 6 -1 10 4 10 6 0 11 -4 11 -10z m1285 -10 c3 -5 1 -10 -4
-10 -6 0 -11 5 -11 10 0 6 2 10 4 10 3 0 8 -4 11 -10z m1745 4 c0 -19 -34 -74
-44 -71 -14 5 -8 37 11 60 16 17 33 23 33 11z m490 -12 c0 -20 -36 -55 -80
-77 -89 -45 -107 -29 -32 28 60 45 112 68 112 49z m-2256 -21 c7 -11 -14 -20
-31 -13 -7 2 -10 8 -7 13 7 12 31 12 38 0z m-164 -61 c0 -5 -4 -10 -10 -10 -5
0 -10 5 -10 10 0 6 5 10 10 10 6 0 10 -4 10 -10z m-1120 -35 c0 -8 -4 -15 -10
-15 -5 0 -10 7 -10 15 0 8 5 15 10 15 6 0 10 -7 10 -15z m941 -38 c-8 -8 -11
-7 -11 4 0 20 13 34 18 19 3 -7 -1 -17 -7 -23z m-1281 13 c0 -5 -4 -10 -10
-10 -5 0 -10 5 -10 10 0 6 5 10 10 10 6 0 10 -4 10 -10z m580 6 c0 -3 -4 -8
-10 -11 -5 -3 -10 -1 -10 4 0 6 5 11 10 11 6 0 10 -2 10 -4z m1370 -90 c0 -3
-4 -8 -10 -11 -5 -3 -10 -1 -10 4 0 6 5 11 10 11 6 0 10 -2 10 -4z m-825 -88
c-3 -46 -16 -108 -27 -138 -11 -30 -30 -84 -42 -120 -13 -36 -49 -117 -80
-179 -70 -143 -73 -177 -14 -147 38 20 56 5 35 -28 -12 -17 -17 -47 -17 -94 0
-62 -3 -71 -24 -85 -23 -15 -24 -15 -30 16 -7 36 -53 240 -62 274 -4 15 4 43
24 80 56 110 120 268 146 361 14 52 31 101 38 109 10 13 40 30 57 32 2 1 0
-36 -4 -81z m3122 76 c-3 -3 -12 -4 -19 -1 -8 3 -5 6 6 6 11 1 17 -2 13 -5z
m-23 -56 c-3 -5 -12 -4 -20 3 -7 6 -11 15 -8 21 3 5 12 4 20 -3 7 -6 11 -15 8
-21z m-3314 -112 c0 -103 -144 -456 -202 -498 -16 -11 -28 -25 -28 -31 0 -7
-10 -42 -22 -80 -20 -61 -21 -72 -9 -118 14 -54 10 -127 -14 -254 -8 -38 -12
-71 -10 -74 13 -12 35 13 41 46 4 21 12 49 19 63 13 25 13 25 21 -14 14 -76
-8 -382 -30 -403 -10 -10 -55 53 -65 93 -6 22 -21 56 -34 75 -34 50 -51 255
-37 419 14 145 19 163 90 285 32 55 61 111 65 125 3 14 20 51 36 82 17 32 38
81 49 110 49 137 80 212 92 219 16 10 38 -16 38 -45z m-792 8 c-10 -10 -28 6
-28 24 0 15 1 15 17 -1 9 -9 14 -19 11 -23z m311 -36 c-4 -29 -17 -80 -29
-113 -38 -109 -58 -209 -64 -326 -6 -113 -20 -224 -33 -264 -4 -13 -11 9 -18
60 -14 95 -4 216 25 320 10 39 26 102 35 140 36 160 67 251 83 241 5 -3 5 -29
1 -58z m921 42 c0 -5 -4 -10 -10 -10 -5 0 -10 5 -10 10 0 6 5 10 10 10 6 0 10
-4 10 -10z m-140 -42 c0 -29 -39 -151 -61 -188 -4 -8 -17 -34 -28 -56 -19 -42
-37 -61 -48 -50 -6 6 79 250 103 299 19 36 34 34 34 -5z m474 11 c-3 -5 -14
-9 -26 -9 -17 0 -18 3 -8 14 12 15 44 10 34 -5z m1890 0 c-3 -5 -10 -7 -15 -3
-5 3 -7 10 -3 15 3 5 10 7 15 3 5 -3 7 -10 3 -15z m550 -36 c-10 -7 -24 -13
-31 -13 -22 0 -14 20 12 32 14 6 26 16 26 22 1 6 4 2 6 -8 3 -12 -2 -25 -13
-33z m-4244 17 c0 -5 -2 -10 -4 -10 -3 0 -8 5 -11 10 -3 6 -1 10 4 10 6 0 11
-4 11 -10z m717 -22 c-3 -8 -6 -5 -6 6 -1 11 2 17 5 13 3 -3 4 -12 1 -19z
m3313 -18 c0 -5 -4 -10 -10 -10 -5 0 -10 5 -10 10 0 6 5 10 10 10 6 0 10 -4
10 -10z m-3644 -217 c-20 -91 -38 -202 -41 -263 -9 -144 -8 -142 -48 -122 -41
20 -47 29 -47 78 0 22 -6 46 -12 53 -11 10 -10 14 3 21 12 7 15 21 11 63 -3
38 0 61 11 78 8 13 21 44 27 68 14 53 36 88 59 96 10 3 28 31 41 63 37 86 35
42 -4 -135z m1424 136 c0 -6 -4 -7 -10 -4 -5 3 -10 11 -10 16 0 6 5 7 10 4 6
-3 10 -11 10 -16z m115 -40 c11 -17 -1 -21 -15 -4 -8 9 -8 15 -2 15 6 0 14 -5
17 -11z m-1685 -41 c0 -18 -12 -98 -26 -178 -27 -152 -40 -178 -75 -159 -29
15 -26 104 5 171 13 29 27 82 31 118 8 77 9 80 41 80 20 0 24 -5 24 -32z
m3875 2 c-3 -5 -13 -10 -21 -10 -8 0 -14 5 -14 10 0 6 9 10 21 10 11 0 17 -4
14 -10z m-4030 -20 c18 -20 15 -72 -6 -113 -15 -26 -24 -15 -39 47 -19 80 3
113 45 66z m3812 -16 c-9 -9 -28 6 -21 18 4 6 10 6 17 -1 6 -6 8 -13 4 -17z
m-132 6 c-3 -5 -11 -10 -16 -10 -6 0 -7 5 -4 10 3 6 11 10 16 10 6 0 7 -4 4
-10z m69 -31 c-3 -5 -10 -7 -15 -3 -5 3 -7 10 -3 15 3 5 10 7 15 3 5 -3 7 -10
3 -15z m-100 3 c9 -15 -23 -135 -43 -161 -12 -14 -29 -41 -38 -58 -19 -38 -40
-47 -76 -34 -40 15 -41 28 -4 60 18 17 49 61 67 98 19 37 40 76 48 86 16 18
37 22 46 9z m-2034 -22 c0 -5 -4 -10 -10 -10 -5 0 -10 5 -10 10 0 6 5 10 10
10 6 0 10 -4 10 -10z m2265 -10 c8 -24 -1 -40 -21 -40 -8 0 -14 -4 -14 -10 0
-13 -36 -13 -61 0 -27 15 -24 32 9 52 38 24 79 23 87 -2z m-2584 -63 c-7 -17
-21 -54 -31 -81 -25 -73 -44 -72 -60 0 -7 32 -4 38 38 83 52 54 75 53 53 -2z
m-738 -84 c-1 -41 -10 -89 -21 -119 -16 -40 -20 -77 -21 -207 -2 -207 -8 -221
-55 -129 -54 106 -58 133 -46 286 14 179 23 216 53 216 12 0 33 7 47 14 14 8
30 13 35 11 6 -1 9 -32 8 -72z m3167 67 c0 -5 -4 -10 -10 -10 -5 0 -10 5 -10
10 0 6 5 10 10 10 6 0 10 -4 10 -10z m-2299 -28 c-5 -15 -22 -60 -40 -99 -17
-40 -34 -92 -37 -117 -4 -29 -12 -46 -20 -46 -18 0 -74 56 -74 74 0 8 17 27
38 42 42 30 72 69 102 132 24 47 43 57 31 14z m2219 -32 c0 -5 -4 -10 -10 -10
-5 0 -10 5 -10 10 0 6 5 10 10 10 6 0 10 -4 10 -10z m-2775 -92 c4 -39 14 -86
21 -105 25 -59 38 -282 25 -426 -7 -70 -9 -132 -6 -137 3 -5 -1 -31 -9 -57 -8
-26 -26 -86 -40 -133 -37 -122 -38 -123 -86 -73 -22 23 -40 48 -40 56 0 8 15
18 33 23 18 6 37 20 44 34 6 14 21 117 33 229 27 245 24 389 -10 533 -22 94
-23 98 -5 118 10 11 21 17 25 15 5 -3 11 -37 15 -77z m758 -59 c-17 -17 -37
-1 -22 17 8 10 15 12 23 4 7 -7 7 -13 -1 -21z m2082 21 c3 -5 1 -10 -4 -10 -6
0 -11 5 -11 10 0 6 2 10 4 10 3 0 8 -4 11 -10z m-95 -41 c0 -5 -7 -9 -15 -9
-9 0 -15 9 -15 21 0 18 2 19 15 9 8 -7 15 -16 15 -21z m210 6 c0 -8 -4 -15
-10 -15 -5 0 -10 7 -10 15 0 8 5 15 10 15 6 0 10 -7 10 -15z m-3680 -11 c0 -8
-4 -12 -10 -9 -5 3 -10 10 -10 16 0 5 5 9 10 9 6 0 10 -7 10 -16z m994 -17
c15 -20 19 -41 18 -83 -2 -75 -9 -93 -37 -100 -19 -5 -26 -15 -31 -43 -13 -70
-25 -68 -21 4 6 108 30 256 41 252 5 -2 19 -15 30 -30z m-368 -15 c-4 -3 -12
0 -19 7 -9 9 -9 14 3 21 11 7 16 5 18 -6 2 -9 1 -18 -2 -22z m834 14 c0 -19
-29 -48 -41 -41 -10 7 -12 39 -2 48 12 13 43 7 43 -7z m196 -63 c-11 -11 -19
6 -11 24 8 17 8 17 12 0 3 -10 2 -21 -1 -24z m-266 -163 c-23 -58 -46 -109
-51 -114 -17 -18 -19 1 -4 31 9 17 24 70 34 117 10 48 26 95 37 107 l19 21 3
-29 c2 -16 -15 -73 -38 -133z m2220 140 c0 -5 -4 -10 -10 -10 -5 0 -10 5 -10
10 0 6 5 10 10 10 6 0 10 -4 10 -10z m-2495 -49 c3 -5 1 -12 -5 -16 -5 -3 -10
1 -10 9 0 18 6 21 15 7z m-1285 -61 c0 -5 7 -10 15 -10 8 0 15 -6 15 -13 0
-19 69 -61 119 -72 17 -4 31 -11 31 -16 0 -5 7 -9 16 -9 39 0 106 -43 141 -90
21 -28 43 -50 49 -50 7 0 19 -6 26 -13 7 -7 21 -16 30 -20 9 -3 27 -21 40 -40
13 -19 42 -60 66 -90 23 -31 42 -60 42 -65 0 -5 36 -87 79 -183 52 -114 94
-191 122 -224 46 -55 71 -106 68 -139 -10 -94 84 -367 126 -366 20 1 43 27 65
73 15 32 30 49 47 53 13 4 27 4 30 0 3 -3 10 -46 16 -96 9 -76 8 -102 -7 -163
-9 -39 -25 -91 -36 -114 -18 -40 -22 -43 -58 -43 -62 0 -70 -46 -22 -140 72
-143 82 -183 83 -335 1 -185 -11 -379 -28 -435 -7 -25 -16 -63 -20 -85 -3 -22
-20 -83 -37 -135 -25 -79 -29 -105 -23 -152 6 -58 -15 -136 -33 -124 -5 3 -17
36 -27 73 -37 141 -83 232 -117 233 -4 0 -12 -18 -18 -40 -12 -44 -26 -51 -39
-18 -5 13 -10 17 -14 10 -4 -6 6 -37 22 -69 47 -92 79 -174 95 -243 15 -65 21
-73 96 -133 22 -19 22 -20 18 -245 -5 -248 -11 -280 -80 -417 -17 -33 -34 -69
-38 -80 -36 -88 -65 -144 -98 -183 -21 -26 -60 -87 -87 -136 -36 -68 -69 -110
-137 -178 -48 -48 -93 -88 -100 -88 -24 0 -243 -237 -330 -360 -47 -65 -53
-100 -30 -174 24 -82 41 -90 89 -45 41 39 86 69 103 69 17 0 11 -101 -10 -184
-16 -61 -30 -89 -63 -127 -23 -27 -54 -77 -68 -111 -25 -60 -193 -446 -225
-517 -24 -54 -35 -26 -44 119 -5 73 -13 137 -19 143 -21 21 -48 -13 -71 -89
-21 -71 -22 -90 -16 -213 7 -160 27 -314 51 -391 12 -40 17 -93 17 -196 1
-152 -7 -180 -47 -189 -14 -3 -35 -7 -48 -10 -12 -2 -31 -12 -42 -22 -25 -23
-121 -53 -166 -53 -19 0 -43 7 -53 15 -11 8 -32 15 -47 15 -15 0 -31 5 -34 10
-8 13 -62 13 -70 0 -4 -6 -85 -10 -209 -10 l-203 0 -57 29 c-37 18 -75 49
-109 89 -29 34 -76 79 -104 102 -29 22 -55 49 -58 60 -20 62 104 286 198 361
14 10 35 47 47 81 13 35 38 92 56 128 47 93 90 265 129 510 10 58 28 143 42
190 14 47 47 172 74 277 27 106 53 201 58 210 5 10 29 97 52 193 23 96 53 202
66 234 49 119 184 380 244 467 9 14 35 70 57 125 31 78 42 122 51 209 7 61 9
118 6 128 -10 25 -40 21 -53 -8 -14 -31 -27 -32 -46 -2 -39 58 -27 209 29 365
49 140 58 260 26 347 -10 28 -51 127 -91 220 -63 148 -74 183 -86 275 -8 58
-18 119 -23 136 -5 18 -5 90 1 175 5 79 8 194 6 254 l-3 110 -49 74 c-27 41
-60 100 -73 132 -26 64 -42 179 -26 179 20 0 130 -127 136 -157 9 -46 61 -128
83 -131 11 -1 29 7 42 18 25 24 26 35 13 274 -7 113 -5 165 5 215 21 103 73
230 124 301 25 36 61 88 80 115 18 28 50 69 70 91 45 53 135 216 148 269 6 22
13 66 17 98 5 47 4 58 -9 63 -24 9 -119 -77 -163 -149 -21 -33 -70 -94 -108
-135 -69 -71 -71 -73 -129 -79 l-59 -6 7 33 c12 62 150 288 188 308 12 7 34
28 48 47 26 35 86 75 114 75 8 0 20 9 26 20 8 15 21 20 55 20 25 0 45 -4 45
-10z m1400 -75 c0 -8 -4 -15 -10 -15 -5 0 -10 7 -10 15 0 8 5 15 10 15 6 0 10
-7 10 -15z m540 -111 c0 -14 -9 -109 -20 -210 -32 -289 -38 -307 -83 -287 -24
11 -24 11 -20 165 3 113 1 159 -9 177 -7 13 -17 22 -22 20 -5 -2 -10 -71 -12
-154 -3 -155 -11 -204 -40 -236 -21 -24 -51 -24 -57 -1 -3 9 -5 62 -6 117 0
55 -4 114 -10 132 -8 28 -7 33 10 38 10 4 19 10 19 15 0 22 112 153 170 198
36 28 68 51 73 51 4 1 7 -11 7 -25z m-848 -144 c-11 -110 -72 -333 -97 -359
-21 -22 -31 11 -16 58 6 21 11 57 11 79 0 23 9 81 21 129 11 48 23 117 26 152
4 45 12 70 26 84 l21 21 9 -29 c7 -20 6 -65 -1 -135z m109 73 c-8 -15 -10 -10
-11 23 0 22 3 44 8 48 11 12 14 -52 3 -71z m896 -15 c11 -21 17 -56 18 -99 0
-57 -4 -70 -28 -103 -16 -20 -34 -35 -40 -33 -13 4 -15 192 -3 240 9 36 32 34
53 -5z m3887 -93 c11 -8 29 -15 41 -15 36 0 94 -57 106 -105 8 -31 18 -46 37
-55 15 -7 22 -15 15 -17 -6 -2 -40 19 -74 46 -35 28 -68 51 -75 51 -10 0 -37
28 -84 87 -22 27 2 32 34 8z m-3738 -30 c3 -8 2 -20 -2 -27 -5 -7 -7 -38 -5
-69 3 -66 -13 -135 -34 -143 -8 -3 -24 -20 -35 -38 l-20 -33 0 30 c0 17 9 76
21 130 29 137 58 195 75 150z m2114 -135 c0 -5 -4 -10 -10 -10 -5 0 -10 5 -10
10 0 6 5 10 10 10 6 0 10 -4 10 -10z m382 -22 c-7 -7 -12 -8 -12 -2 0 14 12
26 19 19 2 -3 -1 -11 -7 -17z m-5072 1 c0 -6 -13 -29 -29 -52 -15 -23 -41 -67
-56 -97 -15 -30 -38 -69 -51 -86 -13 -17 -24 -33 -24 -36 0 -3 -15 -31 -34
-62 -19 -31 -49 -93 -67 -139 -49 -123 -51 -126 -102 -116 -23 4 -85 8 -138 9
-74 0 -99 -4 -109 -15 -7 -8 -16 -15 -21 -15 -27 0 13 116 57 168 45 54 110
178 128 245 22 89 39 101 181 126 140 25 204 46 220 72 8 13 45 11 45 -2z
m1958 -106 c4 -78 -1 -108 -38 -258 -23 -93 -55 -204 -71 -245 -15 -41 -36
-106 -45 -145 -9 -38 -39 -113 -67 -165 -28 -52 -67 -137 -86 -189 -20 -52
-42 -96 -50 -99 -24 -8 -3 99 51 262 93 284 99 313 105 498 4 121 2 172 -6
182 -8 10 -9 16 -1 21 5 3 10 15 10 25 0 11 9 24 19 29 10 6 50 51 87 101 44
57 72 86 78 80 6 -6 12 -49 14 -97z m4393 70 c40 -24 37 -43 -6 -43 -26 0 -45
-9 -75 -36 -22 -20 -57 -40 -79 -45 -22 -5 -57 -20 -77 -34 -42 -28 -61 -28
-56 1 4 24 38 52 77 62 17 5 40 23 53 43 42 61 110 83 163 52z m-3941 -48 c0
-52 -46 -180 -86 -238 -18 -28 -31 -37 -47 -35 -27 4 -27 38 2 113 10 27 27
73 37 100 17 49 62 105 83 105 6 0 11 -20 11 -45z m4177 3 c26 -25 33 -40 33
-70 0 -27 13 -58 45 -111 46 -77 58 -130 30 -141 -8 -3 -21 2 -30 11 -19 19
-58 95 -75 146 -12 40 -55 87 -78 87 -10 0 -12 6 -7 18 4 9 10 28 12 42 11 62
22 64 70 18z m-3957 -14 c0 -8 -4 -12 -10 -9 -5 3 -10 10 -10 16 0 5 5 9 10 9
6 0 10 -7 10 -16z m2389 -46 c40 -39 37 -60 -12 -71 -20 -5 -37 -13 -37 -18 0
-5 -10 -9 -23 -9 -12 0 -31 -6 -42 -13 -11 -8 -36 -17 -55 -21 -19 -3 -52 -18
-72 -31 -21 -14 -42 -25 -48 -25 -5 0 -10 -4 -10 -9 0 -11 -80 -41 -111 -41
-14 0 -30 5 -37 12 -30 30 -11 51 143 162 61 44 100 61 168 71 20 3 37 10 37
15 0 6 15 10 33 10 24 0 42 -9 66 -32z m-2399 2 c0 -5 -4 -10 -10 -10 -5 0
-10 5 -10 10 0 6 5 10 10 10 6 0 10 -4 10 -10z m-438 -105 c-5 -45 -45 -214
-62 -265 -10 -30 -25 -82 -35 -115 -9 -33 -26 -74 -36 -91 -10 -17 -19 -41
-19 -53 0 -30 -48 -91 -71 -91 -27 0 -25 47 5 118 13 31 34 91 47 132 12 41
32 98 44 125 12 28 25 68 29 90 11 62 37 138 54 158 20 23 48 18 44 -8z m3833
15 c12 -19 -16 -49 -56 -62 -31 -9 -45 -20 -57 -44 -8 -18 -20 -31 -25 -27 -5
3 -12 2 -16 -3 -3 -5 -28 -20 -54 -34 -27 -14 -61 -38 -76 -55 -14 -16 -37
-36 -51 -42 -43 -21 -109 -60 -124 -72 -11 -9 -22 -8 -50 6 -39 18 -45 30 -21
39 17 7 20 31 4 36 -12 4 -1 38 13 38 5 0 18 -10 27 -22 l18 -21 58 41 c32 23
65 42 74 42 9 0 32 13 51 28 19 16 67 49 105 75 39 25 81 55 95 66 26 22 75
28 85 11z m-862 -34 c15 -23 15 -24 -6 -30 -12 -3 -49 -6 -82 -6 -45 -1 -70
-7 -100 -25 -22 -13 -68 -38 -103 -55 -103 -49 -153 -36 -81 20 23 19 38 38
35 46 -6 16 3 18 23 5 14 -9 53 1 161 43 87 33 133 34 153 2z m-3093 -37 c0
-12 -7 -19 -20 -19 -14 0 -20 7 -20 23 0 13 3 27 7 30 10 11 33 -13 33 -34z
m465 11 c-3 -5 -11 -10 -16 -10 -6 0 -7 5 -4 10 3 6 11 10 16 10 6 0 7 -4 4
-10z m-1075 -14 c0 -3 -4 -8 -10 -11 -5 -3 -10 -1 -10 4 0 6 5 11 10 11 6 0
10 -2 10 -4z m1055 -25 c3 -5 1 -12 -5 -16 -5 -3 -10 1 -10 9 0 18 6 21 15 7z
m333 -42 c39 -43 101 -161 102 -192 0 -27 28 -75 50 -87 10 -6 17 -16 14 -24
-3 -7 2 -16 10 -19 9 -4 16 -17 16 -31 0 -13 8 -27 18 -31 15 -6 15 -8 1 -18
-25 -19 -31 -63 -23 -184 7 -113 7 -115 48 -175 23 -33 54 -68 69 -77 28 -16
29 -15 53 12 13 15 24 40 24 55 0 15 14 81 30 147 17 66 30 131 30 145 0 14 8
48 18 75 21 57 24 58 132 30 36 -10 99 -20 140 -24 41 -4 89 -15 105 -24 17
-9 36 -17 43 -17 19 0 51 -20 122 -77 101 -80 155 -103 238 -103 62 0 73 3 87
23 10 14 18 18 23 11 4 -5 18 -18 31 -27 20 -13 24 -26 27 -74 1 -33 0 -63 -4
-69 -4 -5 -25 -18 -47 -29 -51 -26 -133 -81 -167 -113 -23 -21 -28 -34 -28
-72 0 -48 13 -73 63 -127 28 -30 36 -33 89 -33 58 0 87 11 133 51 19 16 131
59 155 59 6 0 26 11 44 25 33 25 72 32 104 17 9 -5 41 -21 70 -36 69 -36 176
-38 267 -6 33 12 89 26 125 31 132 18 145 24 220 99 35 36 52 46 124 75 52 20
52 20 82 -25 15 -22 32 -40 38 -40 6 0 39 -23 73 -50 52 -43 74 -54 145 -71
45 -11 97 -24 113 -29 17 -4 58 -11 93 -15 34 -4 62 -11 62 -17 0 -5 -8 -23
-17 -39 -16 -27 -16 -29 3 -50 28 -31 88 -59 128 -59 52 0 66 -9 66 -42 0 -23
-6 -31 -30 -39 -35 -13 -38 -27 -10 -59 20 -23 26 -56 12 -75 -4 -6 -22 -22
-41 -34 -33 -24 -33 -25 -27 -82 l7 -58 -78 5 c-79 6 -240 -11 -398 -42 -44
-8 -120 -19 -170 -24 -49 -5 -110 -13 -135 -19 -25 -5 -73 -10 -108 -11 -80 0
-136 -27 -156 -74 -8 -18 -23 -40 -33 -47 -11 -8 -39 -36 -62 -63 -40 -46 -60
-63 -138 -118 -27 -19 -33 -30 -33 -61 0 -36 -1 -37 -32 -35 -29 3 -33 0 -36
-23 -2 -14 8 -59 22 -100 27 -81 48 -253 66 -554 13 -218 52 -576 84 -780 13
-82 27 -177 31 -210 3 -33 10 -73 15 -90 5 -16 13 -91 19 -165 6 -74 17 -167
26 -205 9 -38 14 -83 10 -100 -14 -68 -23 -389 -15 -534 8 -137 11 -157 29
-170 18 -14 20 -31 24 -171 3 -85 9 -202 15 -260 7 -58 13 -183 14 -278 l3
-172 -65 0 c-36 -1 -94 -7 -130 -15 -36 -8 -100 -14 -142 -15 -76 0 -77 0 -97
33 -35 57 -83 95 -121 97 -94 5 -130 0 -152 -22 -36 -36 -102 -36 -185 1 -39
17 -80 31 -90 31 -10 0 -52 7 -93 16 -83 18 -321 14 -373 -5 -22 -9 -31 -7
-46 8 -29 29 -36 78 -15 102 9 10 25 19 35 19 10 0 20 4 24 9 3 5 20 13 37 17
18 3 39 10 48 15 8 4 37 18 63 30 58 28 122 94 149 157 26 58 22 112 -30 392
-41 225 -47 344 -24 545 13 112 7 227 -14 295 -26 84 -35 216 -19 279 7 31 19
92 25 136 7 44 16 100 22 125 5 25 13 72 18 105 4 33 18 121 30 195 20 123 21
159 16 400 -3 146 -10 296 -17 334 -21 129 -118 337 -200 432 -146 166 -218
280 -264 414 -14 40 -47 119 -74 174 -51 106 -91 202 -91 219 0 19 -73 172
-84 176 -29 10 -96 96 -144 184 -30 53 -67 114 -84 134 -17 21 -47 62 -67 92
-20 30 -44 66 -54 80 -9 14 -25 46 -34 71 -10 24 -39 80 -65 124 -26 44 -50
94 -53 110 -3 17 -13 59 -22 93 -13 52 -14 74 -4 144 7 45 21 110 32 145 l20
64 39 0 c34 0 46 -6 78 -41z m-290 -15 c-10 -10 -28 6 -28 24 0 15 1 15 17 -1
9 -9 14 -19 11 -23z m-832 1 c19 -78 -48 -408 -99 -489 -7 -12 -24 -47 -36
-78 -36 -89 -48 -90 -39 -5 4 40 7 109 7 155 1 69 -2 85 -19 102 -33 33 -35
66 -7 123 25 52 160 217 177 217 5 0 12 -11 16 -25z m282 -64 c3 -71 -9 -74
-28 -7 -13 48 -8 80 13 74 7 -3 13 -28 15 -67z m-498 29 c0 -5 -4 -10 -10 -10
-5 0 -10 5 -10 10 0 6 5 10 10 10 6 0 10 -4 10 -10z m3714 -7 c91 -24 117 -49
145 -143 27 -89 46 -117 103 -156 55 -37 65 -50 79 -99 14 -51 -6 -92 -59
-120 -30 -16 -40 -30 -55 -75 -23 -68 -39 -86 -83 -94 -19 -4 -34 -11 -34 -16
0 -6 -13 -10 -30 -10 -16 0 -30 -4 -30 -8 0 -4 -15 -13 -33 -20 -34 -12 -69
-51 -81 -90 -7 -20 -13 -22 -91 -22 -46 0 -85 -3 -87 -7 -5 -13 -101 -43 -136
-43 -22 0 -49 11 -77 31 -44 31 -96 48 -151 49 -37 0 -103 35 -162 86 -78 66
-76 114 4 114 53 0 78 22 69 59 -7 29 -19 39 -55 47 -74 16 -130 39 -130 54 0
9 19 37 41 61 71 76 113 140 159 242 43 97 67 126 86 107 6 -6 38 -13 72 -16
52 -6 76 -2 164 26 57 18 117 38 133 46 42 19 157 17 239 -3z m1466 -89 c0
-17 -22 -14 -28 4 -2 7 3 12 12 12 9 0 16 -7 16 -16z m-4260 -36 c0 -19 -2
-20 -10 -8 -13 19 -13 30 0 30 6 0 10 -10 10 -22z m-232 -209 c-1 -13 -7 -23
-13 -22 -13 3 -18 30 -11 50 10 24 29 1 24 -28z m907 1 c18 -34 19 -44 5 -35
-16 10 -42 65 -31 65 6 0 17 -13 26 -30z m2589 -29 c3 -4 23 -11 44 -15 28 -4
42 -13 50 -30 12 -26 3 -25 242 -46 69 -5 152 -15 185 -20 38 -6 63 -6 69 0
15 15 59 12 82 -5 10 -8 29 -15 41 -15 12 0 24 -4 27 -9 3 -4 29 -11 57 -15
28 -4 58 -11 67 -16 39 -22 97 -40 126 -40 49 0 92 -32 100 -74 4 -20 21 -69
38 -109 51 -120 51 -121 14 -166 -37 -44 -123 -121 -135 -121 -4 0 -15 8 -24
18 -13 14 -13 20 -2 35 7 11 17 37 20 58 5 30 14 43 36 54 35 19 36 29 4 71
-23 30 -24 36 -15 85 6 28 10 54 10 56 0 3 -19 2 -42 -2 -40 -6 -67 -7 -209
-5 -53 1 -56 2 -70 33 -21 49 -44 46 -100 -13 -58 -60 -79 -60 -109 0 -11 21
-24 42 -30 45 -19 12 -40 -16 -40 -51 0 -28 10 -44 55 -90 30 -30 71 -62 90
-69 18 -8 45 -26 59 -40 14 -14 34 -25 46 -25 11 0 20 -4 20 -9 0 -5 13 -11
29 -14 19 -4 42 -23 67 -56 22 -28 47 -53 57 -56 9 -4 22 -15 28 -26 18 -35
-35 -62 -79 -40 -32 16 -67 29 -95 36 -16 3 -48 26 -73 51 -43 45 -116 79
-244 116 -19 6 -41 15 -48 21 -9 7 -16 7 -24 -1 -14 -14 -118 -16 -162 -3
-146 42 -178 64 -226 152 -10 20 -30 43 -44 53 -39 25 -32 50 29 111 l55 55 0
70 c0 63 9 86 24 61z m-3917 -289 c-16 -15 -37 -9 -37 11 0 7 10 28 23 47 l22
35 3 -39 c2 -25 -2 -44 -11 -54z m849 -3 c6 -67 3 -88 -20 -160 -14 -46 -32
-129 -41 -184 -8 -55 -37 -170 -65 -255 -27 -85 -50 -161 -50 -168 0 -8 -7
-26 -15 -40 -8 -15 -29 -68 -47 -119 -18 -51 -45 -107 -60 -125 -24 -30 -27
-31 -34 -14 -8 20 -1 42 51 176 19 47 43 123 55 169 12 47 32 116 45 155 13
39 28 99 34 132 7 34 22 88 35 121 14 33 27 91 31 133 3 41 13 113 22 160 26
137 47 144 59 19z m-677 -91 c-1 -50 -23 -129 -34 -128 -22 2 4 160 26 160 5
0 9 -15 8 -32z m4679 -2 c5 -43 -11 -51 -42 -23 l-26 24 22 16 c30 21 42 16
46 -17z m-4843 -6 c3 -5 1 -10 -4 -10 -6 0 -11 5 -11 10 0 6 2 10 4 10 3 0 8
-4 11 -10z m4663 -2 c-3 -7 -13 -13 -23 -13 -10 0 -20 6 -22 13 -3 7 5 12 22
12 17 0 25 -5 23 -12z m-4092 -43 c-4 -19 -11 -35 -16 -35 -13 0 -12 10 1 49
14 41 23 33 15 -14z m4142 -17 c17 -17 15 -28 -7 -28 -22 0 -35 15 -26 30 8
13 18 13 33 -2z m-2198 -29 c0 -12 -14 -26 -37 -37 -101 -51 -185 -25 -95 29
38 23 98 39 120 31 6 -2 12 -13 12 -23z m-1495 -46 c-4 -22 -1 -40 10 -55 37
-53 2 -294 -85 -598 -16 -58 -35 -125 -42 -150 -27 -108 -122 -321 -188 -426
-22 -35 -40 -68 -40 -74 0 -15 -60 -12 -66 4 -9 25 16 97 88 251 39 83 77 175
85 204 8 30 25 75 38 100 26 53 44 112 130 420 9 30 13 61 10 70 -3 9 4 42 15
74 14 41 20 82 20 148 0 82 2 90 16 78 11 -9 14 -22 9 -46z m3784 3 c9 -10 9
-16 1 -21 -16 -10 -40 2 -40 20 0 19 24 20 39 1z m-3589 -15 c0 -6 -4 -13 -10
-16 -5 -3 -10 1 -10 9 0 9 5 16 10 16 6 0 10 -4 10 -9z m-680 -20 c0 -11 -4
-22 -9 -25 -11 -7 -20 14 -13 32 7 19 22 14 22 -7z m3760 -31 c0 -5 -4 -10
-10 -10 -5 0 -10 5 -10 10 0 6 5 10 10 10 6 0 10 -4 10 -10z m-4193 -67 c-9
-91 -25 -152 -47 -180 -11 -14 -20 -33 -20 -42 0 -10 -6 -26 -14 -37 -14 -18
-15 -18 -22 -1 -4 11 4 45 19 85 14 37 35 99 47 137 12 39 23 76 25 83 10 32
17 6 12 -45z m383 -28 c-14 -42 -36 -61 -26 -22 11 47 28 82 33 70 3 -7 -1
-29 -7 -48z m-199 -62 c0 -16 -2 -80 -4 -143 -6 -135 -47 -287 -103 -383 -34
-58 -43 -100 -24 -112 14 -9 13 -48 -2 -63 -17 -17 -74 -15 -92 4 -21 21 -22
20 23 78 48 62 74 127 106 266 13 58 31 123 38 145 12 33 12 45 1 70 -19 44
-17 89 6 118 11 14 20 34 20 44 0 11 3 23 7 27 10 10 24 -19 24 -51z m883 15
c19 -26 21 -96 5 -153 -6 -22 -19 -78 -29 -125 -60 -283 -157 -543 -265 -710
-34 -52 -77 -120 -97 -150 -39 -61 -131 -165 -158 -180 -15 -8 -35 6 -109 71
-50 44 -91 86 -91 92 0 7 -16 37 -36 67 -20 30 -44 73 -54 95 -10 23 -33 51
-54 65 -40 27 -83 83 -88 115 -2 16 3 21 27 23 75 7 75 6 129 153 13 37 47
110 75 163 28 53 51 104 51 113 0 14 28 111 78 271 9 28 19 52 23 52 13 0 -3
-107 -27 -177 -13 -39 -24 -81 -24 -93 0 -11 -7 -37 -16 -58 -9 -20 -26 -71
-39 -112 -13 -41 -39 -117 -59 -169 -40 -103 -44 -138 -20 -148 27 -10 48 11
72 76 24 61 44 75 50 33 3 -20 -28 -92 -53 -122 -6 -8 -22 -40 -34 -71 -33
-84 -11 -116 42 -61 26 27 200 393 227 477 26 83 125 273 136 262 21 -21 -154
-542 -260 -772 -25 -55 -46 -107 -46 -116 0 -23 36 -54 45 -39 5 8 15 5 31
-11 18 -17 31 -21 60 -16 20 3 46 13 58 20 29 19 206 375 206 414 0 7 9 26 20
41 19 26 55 132 86 252 43 166 74 303 84 364 15 95 25 106 54 64z m3721 12
c-3 -5 -10 -10 -16 -10 -5 0 -9 5 -9 10 0 6 7 10 16 10 8 0 12 -4 9 -10z m-55
-60 c0 -5 -5 -10 -11 -10 -5 0 -7 5 -4 10 3 6 8 10 11 10 2 0 4 -4 4 -10z
m-116 -16 c20 -8 21 -28 1 -44 -21 -18 -19 -29 10 -40 14 -5 27 -21 31 -37 7
-27 -9 -226 -22 -270 -6 -21 -3 -23 29 -23 25 0 39 6 46 18 11 21 30 155 34
237 3 82 19 83 105 5 60 -55 96 -106 145 -205 23 -46 47 -124 39 -129 -4 -2
-47 -7 -97 -11 -49 -4 -98 -12 -108 -17 -47 -25 -290 -46 -313 -27 -12 9 -20
9 -40 -1 -15 -8 -28 -10 -33 -4 -4 5 -20 71 -35 147 -15 77 -35 156 -46 177
l-20 39 28 19 c15 10 50 29 77 41 93 42 95 44 95 68 0 17 -6 23 -21 23 -36 0
-15 25 27 31 21 3 42 7 46 8 3 0 13 -2 22 -5z m-3404 -166 c0 -47 -14 -124
-45 -243 -26 -98 -125 -375 -158 -442 -19 -37 -42 -90 -52 -118 -15 -41 -47
-78 -167 -199 -99 -100 -145 -153 -138 -160 6 -6 19 -5 37 5 38 20 251 232
303 302 39 52 97 176 155 332 12 33 33 87 47 120 38 89 88 240 88 264 0 20 17
38 27 28 10 -11 -27 -334 -42 -370 -8 -20 -15 -44 -15 -54 -1 -20 -50 -124
-95 -197 -125 -203 -234 -338 -391 -481 -81 -74 -83 -75 -95 -53 -7 12 -34 46
-62 75 l-49 52 23 29 c13 16 59 73 102 126 44 54 85 100 93 103 8 3 35 46 60
97 25 50 53 100 63 111 9 11 28 52 41 90 13 39 43 116 67 173 50 118 68 177
104 342 7 30 18 69 25 85 7 17 16 44 19 60 l7 30 24 -28 c18 -22 24 -40 24
-79z m-1224 -70 c-3 -24 -10 -79 -15 -123 -5 -44 -15 -94 -22 -110 -17 -38
-68 -105 -80 -105 -20 0 -20 30 -1 57 12 17 23 53 26 89 7 65 36 176 55 213 7
11 19 21 28 21 13 0 14 -8 9 -42z m-136 -72 c0 -35 -10 -56 -26 -56 -17 0 -18
34 -2 60 17 27 28 25 28 -4z m4420 -208 c6 -24 15 -56 20 -72 6 -16 10 -51 10
-77 l0 -49 -62 -1 c-35 -1 -85 -1 -113 0 -27 1 -81 -5 -118 -13 -54 -11 -81
-12 -134 -4 -49 9 -70 8 -84 0 -13 -8 -98 -12 -279 -12 -244 0 -263 1 -301 21
l-40 20 47 42 c26 23 63 53 83 66 20 14 38 28 41 31 12 16 82 29 190 34 63 3
158 11 210 16 215 23 379 37 447 39 l72 1 11 -42z m-2847 18 c25 -19 24 -92
-3 -106 -28 -15 -44 19 -35 76 7 47 11 50 38 30z m-1693 -82 c0 -41 107 -160
168 -187 50 -21 148 -96 198 -150 71 -79 77 -87 96 -129 22 -50 167 -200 304
-314 61 -51 114 -102 117 -113 3 -11 -5 -34 -20 -56 -30 -45 -27 -68 11 -75
50 -9 54 -60 27 -335 -12 -116 -20 -173 -51 -325 -29 -146 -39 -250 -30 -305
16 -93 72 -310 87 -333 16 -26 14 -134 -5 -358 -13 -146 -15 -151 -63 -164
-54 -15 -53 -57 2 -84 19 -9 28 -27 43 -90 l20 -79 -37 -136 c-19 -75 -54
-189 -77 -254 -53 -152 -64 -267 -30 -309 12 -16 27 -28 35 -28 7 0 18 -7 25
-15 8 -10 17 -12 24 -6 11 9 92 -25 126 -53 8 -7 22 -16 31 -19 11 -4 18 -22
22 -59 4 -29 9 -76 13 -105 6 -45 3 -58 -20 -98 -19 -31 -26 -56 -24 -82 2
-31 -1 -38 -17 -40 -25 -4 -125 -34 -145 -43 -85 -39 -152 -81 -185 -115 -22
-23 -53 -51 -70 -62 -30 -21 -30 -23 -29 -107 1 -72 5 -94 27 -137 15 -28 27
-57 27 -65 0 -16 -41 -18 -110 -4 -27 5 -69 5 -105 0 -33 -5 -106 -14 -162
-19 -77 -7 -110 -15 -132 -30 -16 -12 -34 -21 -40 -21 -7 0 -23 -12 -37 -26
-24 -23 -32 -25 -108 -23 -101 3 -376 -12 -376 -20 0 -8 -24 -10 -204 -17
-159 -6 -192 -16 -198 -57 -3 -19 -13 -23 -83 -34 -175 -25 -230 -35 -247 -44
-9 -5 -29 -9 -45 -9 -15 0 -41 -7 -57 -15 -16 -9 -31 -14 -33 -12 -2 3 -10 45
-17 94 -7 49 -23 111 -35 139 -21 48 -95 134 -116 134 -24 1 -65 50 -94 111
-24 52 -39 71 -65 83 -19 9 -39 16 -44 16 -25 0 -42 46 -42 112 0 78 12 118
37 118 23 0 104 28 120 41 6 6 38 13 70 16 54 6 62 10 119 66 53 51 67 72 95
145 34 89 37 113 25 222 -6 49 -4 76 8 109 9 24 16 60 16 80 0 53 57 258 84
305 13 23 33 71 45 109 32 106 118 273 152 298 42 29 60 69 50 107 -6 21 -5
37 5 53 26 46 76 155 114 249 34 85 61 168 186 568 31 100 42 121 97 190 92
113 99 124 166 276 34 76 73 152 87 169 42 50 102 179 114 246 8 43 9 141 4
317 -8 275 -6 290 47 534 16 74 34 164 40 199 14 87 24 105 49 88 11 -6 20
-21 20 -33z m1768 -71 c5 -10 12 -32 15 -50 6 -28 3 -34 -20 -45 -17 -8 -31
-26 -36 -44 -5 -18 -20 -37 -32 -42 -13 -6 -26 -23 -30 -41 -23 -107 -37 -265
-45 -536 -12 -352 -14 -371 -40 -388 -11 -6 -20 -21 -20 -32 0 -63 -74 -291
-116 -360 -20 -33 -50 -87 -66 -120 -36 -72 -115 -201 -189 -308 -89 -129
-107 -161 -111 -192 -2 -22 2 -30 15 -33 22 -5 57 25 57 48 0 21 86 166 182
306 79 116 136 220 182 336 14 37 44 103 65 145 96 192 92 172 102 513 7 264
18 416 34 496 3 11 16 26 29 32 l24 11 8 -76 c3 -42 4 -162 1 -267 -5 -152
-11 -213 -31 -301 -14 -60 -32 -146 -41 -190 -33 -156 -63 -261 -99 -345 -21
-47 -43 -104 -51 -128 -7 -24 -24 -57 -38 -75 -13 -18 -28 -43 -32 -57 -4 -14
-22 -47 -40 -75 -18 -27 -51 -84 -74 -125 -23 -41 -55 -95 -70 -120 -15 -25
-35 -67 -45 -93 -10 -26 -28 -60 -40 -75 -12 -15 -28 -38 -35 -52 -68 -133
-98 -183 -106 -183 -13 0 -27 42 -65 204 -19 80 -30 146 -27 161 4 14 22 47
40 74 18 27 45 75 60 106 14 31 33 60 41 65 17 9 66 92 66 111 0 8 19 37 43
65 53 64 85 120 125 217 17 41 53 126 81 189 34 76 47 117 40 122 -6 4 -13 58
-16 135 -4 105 -1 145 15 214 11 47 36 159 57 250 28 124 44 176 66 209 16 25
34 63 40 85 19 73 71 241 81 259 5 9 15 17 23 17 8 0 18 -8 23 -17z m-239
-285 c-4 -24 -8 -61 -9 -84 0 -33 -5 -44 -29 -62 -16 -11 -52 -60 -81 -109
-109 -182 -188 -283 -197 -255 -7 18 -31 15 -37 -5 -3 -10 -8 -35 -12 -56 -5
-30 -21 -51 -77 -102 -39 -36 -74 -62 -78 -57 -4 4 -14 33 -23 64 l-16 58 147
144 c82 79 172 175 200 213 126 163 153 201 180 245 15 27 31 48 34 48 4 0 3
-19 -2 -42z m344 -418 c2 -355 0 -393 -15 -404 -12 -8 -16 -26 -15 -61 1 -37
-16 -104 -66 -256 -67 -205 -151 -388 -255 -559 -22 -36 -56 -98 -76 -138 -20
-40 -43 -75 -51 -79 -8 -3 -38 -50 -66 -106 -28 -55 -62 -109 -75 -120 -13
-10 -24 -24 -24 -30 0 -7 -29 -47 -65 -90 -36 -43 -65 -82 -65 -86 0 -5 7 -15
16 -22 15 -12 16 -11 10 8 -4 12 -2 24 4 28 5 3 10 -2 10 -12 0 -16 1 -16 17
0 10 9 29 37 43 60 14 24 46 75 72 113 26 38 69 106 95 150 26 45 73 120 104
165 31 46 78 127 104 179 26 52 61 114 77 138 72 105 164 298 193 405 25 92
34 111 56 122 24 13 26 20 32 106 4 51 7 242 7 424 0 183 3 353 6 378 7 46 7
46 31 30 13 -9 28 -23 33 -32 5 -9 16 -93 25 -186 23 -224 17 -333 -24 -451
-22 -64 -30 -106 -29 -149 1 -69 -42 -223 -98 -350 -20 -44 -39 -95 -44 -113
-5 -19 -16 -42 -25 -52 -9 -10 -40 -65 -69 -122 -65 -128 -195 -354 -229 -399
-13 -19 -54 -86 -90 -149 -35 -63 -90 -159 -121 -212 -55 -95 -69 -138 -43
-138 22 0 51 39 122 170 78 144 125 224 172 295 18 28 33 54 33 58 0 5 13 27
29 50 54 78 179 294 242 417 39 77 158 380 179 455 28 102 41 135 50 135 13 0
19 -25 26 -113 5 -65 3 -96 -11 -143 -10 -32 -24 -86 -32 -119 -8 -33 -23 -76
-35 -95 -11 -19 -28 -55 -38 -80 -23 -57 -146 -308 -159 -324 -6 -7 -26 -43
-45 -81 -40 -77 -107 -183 -183 -288 -29 -39 -53 -76 -53 -80 0 -5 -26 -42
-57 -83 -32 -41 -73 -98 -90 -126 -32 -51 -51 -113 -39 -125 10 -11 46 29 87
97 127 209 170 275 183 282 8 4 33 41 56 80 22 40 63 107 90 148 69 107 132
230 126 247 -4 8 6 24 22 37 15 13 42 57 61 97 58 127 64 139 74 139 17 0 1
-161 -23 -220 -31 -77 -102 -219 -133 -266 -15 -21 -27 -44 -27 -50 0 -7 -7
-14 -15 -18 -8 -3 -15 -13 -15 -22 0 -24 -29 -81 -75 -150 -48 -70 -71 -121
-60 -132 4 -4 15 4 24 17 9 14 33 45 54 70 21 25 52 73 68 106 36 71 99 165
111 165 11 0 10 -36 -1 -58 -5 -9 -21 -51 -36 -92 -15 -41 -31 -82 -36 -90 -5
-8 -19 -35 -30 -60 -62 -136 -122 -249 -140 -266 -32 -29 -129 -182 -129 -203
0 -25 45 -10 67 22 36 55 83 149 83 167 0 10 10 24 23 33 12 8 38 43 56 78 18
35 42 75 52 88 11 13 19 38 19 56 0 24 7 37 25 49 14 9 40 50 59 92 39 84 59
92 64 26 3 -42 -34 -153 -98 -287 -15 -33 -35 -81 -45 -107 -9 -26 -34 -65
-56 -87 -21 -23 -39 -47 -39 -55 0 -8 -18 -37 -41 -66 -37 -46 -76 -120 -65
-120 24 0 55 30 75 71 14 27 28 49 31 49 4 0 26 33 50 73 23 39 63 97 88 127
25 30 47 57 49 59 2 3 8 0 13 -5 10 -10 -4 -58 -34 -114 -7 -14 -19 -41 -25
-60 -6 -20 -31 -70 -55 -112 -53 -93 -56 -102 -47 -117 15 -23 44 3 71 65 17
38 36 65 48 68 11 4 25 20 31 36 5 17 15 30 20 30 17 0 13 -67 -8 -147 -18
-69 -18 -73 0 -102 10 -16 27 -34 37 -40 28 -15 50 -85 72 -228 10 -66 26
-136 35 -153 15 -29 15 -34 2 -47 -8 -9 -32 -19 -54 -23 -21 -4 -58 -12 -83
-18 -25 -6 -79 -18 -120 -27 -85 -18 -160 -40 -207 -61 -17 -8 -36 -14 -42
-14 -6 0 -11 -8 -11 -17 -1 -17 -2 -16 -15 1 -13 17 -18 17 -47 6 -18 -7 -40
-19 -48 -25 -31 -25 -92 -37 -153 -31 -152 15 -173 18 -181 27 -13 12 -93 11
-117 -1 -11 -6 -19 -7 -19 -2 0 9 -75 42 -128 57 -12 4 -36 18 -52 32 -37 31
-39 69 -9 145 49 123 99 299 108 381 6 48 13 93 17 99 4 6 13 102 20 212 15
220 28 322 45 343 6 7 22 13 34 13 30 0 69 53 101 137 14 36 33 78 43 92 10
14 38 64 63 111 25 47 68 123 96 170 28 47 67 119 87 160 21 41 43 80 50 87
18 17 136 262 169 348 36 95 68 211 71 260 1 22 11 83 23 135 35 162 45 289
39 501 -3 108 -3 199 0 203 19 19 23 -56 26 -414z m262 51 c18 -73 25 -128 22
-155 -15 -118 -50 -292 -61 -298 -30 -20 -32 -4 -8 75 20 67 24 106 26 217 0
74 -3 169 -7 210 -5 41 -6 73 -4 70 3 -3 17 -56 32 -119z m-687 -56 c-29 -109
-31 -135 -32 -283 -1 -135 -4 -166 -17 -175 -8 -7 -21 -43 -28 -82 -27 -148
-116 -347 -230 -510 -23 -33 -58 -83 -77 -112 -43 -65 -72 -83 -91 -57 -7 10
-13 25 -13 33 0 8 45 96 99 195 102 184 152 286 214 434 l35 83 -35 -3 c-41
-3 -43 -7 -73 -103 -27 -85 -166 -367 -199 -403 -21 -23 -24 -24 -33 -8 -10
18 -2 124 13 164 5 12 24 37 42 56 39 38 110 207 113 268 1 20 18 88 39 152
32 101 45 126 99 195 35 43 93 124 131 180 38 55 70 100 71 98 1 -1 -11 -56
-28 -122z m-318 -340 c0 -9 -14 -42 -30 -75 -24 -48 -35 -60 -54 -60 -56 0
-42 73 23 116 54 37 61 39 61 19z m878 -1087 l-13 -23 -3 23 c-4 28 21 66 26
39 2 -9 -3 -26 -10 -39z m172 -1154 c0 -8 -5 -12 -10 -9 -6 4 -8 11 -5 16 9
14 15 11 15 -7z m-354 -482 c-12 -12 -18 8 -10 35 l8 28 4 -28 c2 -16 1 -31
-2 -35z m-176 -22 c0 -5 -4 -10 -10 -10 -5 0 -10 5 -10 10 0 6 5 10 10 10 6 0
10 -4 10 -10z m690 -209 c35 -7 86 -23 113 -37 44 -22 61 -24 179 -24 l130 0
35 30 c38 34 63 38 85 13 25 -30 28 -51 10 -71 -28 -33 -164 -62 -199 -44 -11
6 -25 7 -33 2 -9 -5 -19 -5 -26 1 -8 7 -32 7 -71 0 -112 -20 -379 -41 -509
-41 -108 0 -133 3 -138 15 -6 17 2 45 14 45 4 0 33 23 65 50 31 28 70 54 86
57 16 3 32 10 35 15 7 12 137 5 224 -11z m-600 -29 c80 -31 85 -36 71 -68 -24
-57 -65 -95 -112 -105 -53 -12 -27 -12 -236 -2 l-171 8 71 79 72 78 89 8 c48
5 90 11 94 14 11 12 78 5 122 -12z m-516 -34 c3 -13 6 -47 6 -77 0 -65 -15
-80 -82 -81 -57 0 -58 2 -22 96 32 87 30 84 63 84 21 0 30 -6 35 -22z m2212
-83 c13 -20 15 -40 11 -86 -3 -33 -7 -63 -10 -65 -2 -3 -26 -7 -53 -9 -27 -2
-130 -11 -229 -20 -163 -14 -358 -39 -410 -51 -40 -10 -392 -50 -505 -58 -41
-3 -147 -11 -235 -17 -88 -7 -187 -11 -220 -11 -33 1 -90 -3 -127 -9 -49 -8
-82 -8 -120 0 -35 8 -55 8 -62 1 -12 -12 -256 -14 -256 -1 0 5 7 14 15 21 19
16 19 49 0 74 -8 11 -15 23 -15 26 0 9 132 29 190 29 25 0 95 5 155 11 103 10
150 12 193 10 22 -1 128 18 171 32 25 8 35 7 41 -2 5 -8 23 -10 56 -6 27 3
101 12 164 19 63 7 122 16 130 19 17 7 244 29 275 27 58 -4 370 17 385 26 6 4
46 11 88 15 91 9 253 37 260 45 3 3 25 5 48 5 36 0 47 -5 60 -25z m-5529 -182
c19 -9 37 -22 40 -29 9 -25 -17 -53 -60 -64 -23 -5 -55 -17 -70 -25 -16 -8
-42 -15 -59 -15 -16 0 -41 -9 -54 -19 -14 -11 -41 -22 -62 -26 -20 -3 -59 -19
-87 -35 -97 -55 -135 -73 -140 -68 -12 12 9 61 40 91 125 123 184 171 230 187
66 24 176 25 222 3z m3124 -23 c10 -6 19 -18 19 -26 0 -9 12 -38 27 -64 15
-27 25 -51 22 -54 -3 -3 -41 -9 -85 -12 -43 -4 -84 -11 -91 -16 -8 -6 -24 -6
-45 1 -18 6 -53 16 -78 23 -37 11 -46 18 -48 39 -4 36 21 54 123 88 98 33 126
36 156 21z m2419 -57 c11 -10 16 -42 18 -118 l4 -105 -74 0 c-46 0 -79 5 -86
12 -10 10 -14 10 -20 1 -6 -9 -24 -10 -72 -3 -36 5 -195 12 -355 16 -399 9
-447 11 -551 19 -86 7 -93 6 -110 -13 -17 -20 -19 -20 -36 -5 -16 14 -55 18
-253 23 -129 4 -238 10 -242 13 -4 4 -1 13 6 20 15 15 320 35 419 27 17 -1
211 22 337 40 39 5 111 12 160 15 334 17 645 52 670 76 14 14 167 -1 185 -18z
m-5420 -123 c41 -6 83 -15 92 -20 10 -6 25 -10 33 -10 8 0 15 -4 15 -9 0 -5
18 -12 39 -16 48 -8 74 -35 95 -100 15 -46 23 -54 95 -98 43 -27 84 -59 92
-73 7 -14 28 -34 46 -45 32 -20 43 -39 23 -39 -6 0 -10 -26 -10 -58 0 -32 -4
-62 -9 -67 -4 -6 -18 -42 -30 -82 -33 -112 -90 -188 -183 -244 -51 -31 -97
-50 -140 -58 -103 -20 -155 -24 -177 -12 -15 9 -27 9 -42 1 -21 -12 -83 -3
-154 22 -16 5 -50 14 -74 19 -24 5 -69 20 -99 34 -64 29 -91 31 -138 9 -32
-15 -36 -15 -53 0 -10 9 -35 16 -59 16 -47 0 -93 34 -141 104 -57 82 -63 119
-46 277 9 77 20 150 24 162 14 36 55 67 97 74 22 4 57 20 80 40 23 18 44 33
48 33 4 0 32 12 63 26 52 23 114 48 156 61 9 3 17 9 17 14 0 5 11 9 24 9 14 0
27 4 30 9 3 5 29 12 58 15 29 4 60 11 68 17 8 5 31 7 50 4 19 -3 69 -10 110
-15z m3271 -79 c12 -33 42 -44 164 -62 146 -21 177 -22 185 -8 7 10 12 10 23
1 7 -6 29 -11 48 -9 19 1 82 -2 140 -7 73 -6 113 -5 127 3 15 8 28 7 53 -6
l34 -17 -45 -9 c-25 -4 -74 -10 -110 -12 -224 -12 -296 -18 -305 -25 -5 -5
-30 -4 -55 1 -29 5 -71 4 -118 -3 -56 -9 -80 -9 -104 0 -20 7 -36 8 -43 2 -11
-9 -196 -15 -344 -11 -87 2 -189 32 -231 67 -31 26 -58 91 -44 104 17 16 52
18 332 19 l283 1 10 -29z m759 -45 c0 -3 -4 -8 -10 -11 -5 -3 -10 -1 -10 4 0
6 5 11 10 11 6 0 10 -2 10 -4z m806 -83 c-11 -11 -19 6 -11 24 8 17 8 17 12 0
3 -10 2 -21 -1 -24z m-656 7 c0 -5 -6 -10 -14 -10 -8 0 -18 5 -21 10 -3 6 3
10 14 10 12 0 21 -4 21 -10z m-1509 -90 c13 -7 19 -7 19 0 0 14 32 12 73 -5
20 -8 47 -15 60 -15 31 0 77 -22 77 -37 0 -7 -7 -13 -15 -13 -8 0 -15 -4 -15
-10 0 -19 -66 -10 -118 15 -29 14 -58 25 -65 25 -17 0 -57 29 -57 41 0 12 17
12 41 -1z m689 -46 c0 -8 -4 -14 -9 -14 -11 0 -22 26 -14 34 9 9 23 -3 23 -20z
m-1102 -31 c4 -30 -31 -48 -66 -34 -15 5 -42 13 -59 16 -18 4 -35 11 -38 16
-14 22 10 30 83 27 70 -3 77 -5 80 -25z m-811 -144 c17 -17 4 -39 -22 -39 -26
0 -58 27 -50 41 8 13 59 11 72 -2z m4083 -35 c0 -8 -4 -14 -10 -14 -5 0 -10 9
-10 21 0 11 5 17 10 14 6 -3 10 -13 10 -21z m-4160 -64 c97 -15 117 -35 61
-63 -26 -13 -35 -13 -78 0 -102 32 -152 63 -103 63 11 0 20 5 20 11 0 7 9 9
23 5 12 -4 47 -11 77 -16z m6555 -40 c-5 -8 -11 -8 -17 -2 -6 6 -7 16 -3 22 5
8 11 8 17 2 6 -6 7 -16 3 -22z m-345 0 c0 -5 -5 -10 -11 -10 -5 0 -7 5 -4 10
3 6 8 10 11 10 2 0 4 -4 4 -10z m-360 -80 c13 -8 13 -11 -2 -27 -21 -20 -45
-5 -35 21 7 18 16 20 37 6z m344 2 c-7 -4 -13 -16 -15 -27 -5 -22 -39 -34 -39
-14 0 18 31 49 49 49 10 0 12 -3 5 -8z"/>
<path d="M7602 11740 c-23 -17 -42 -35 -42 -40 0 -13 37 -13 45 0 10 16 62 12
69 -6 9 -22 9 -22 -25 -40 -23 -11 -44 -14 -79 -9 -47 7 -48 6 -55 -24 -10
-46 2 -71 33 -71 27 0 113 29 122 40 3 4 15 12 28 19 29 15 43 52 35 91 -4 23
-16 36 -44 50 -21 11 -40 20 -42 20 -2 0 -23 -14 -45 -30z"/>
<path d="M7160 11531 c0 -5 7 -14 15 -21 16 -14 18 -10 9 14 -6 17 -24 22 -24
7z"/>
<path d="M7102 11477 c-6 -6 -13 -24 -17 -40 -6 -23 -4 -27 13 -27 29 0 54 38
41 62 -11 21 -22 23 -37 5z"/>
<path d="M7007 11424 c-12 -13 -8 -38 14 -73 23 -38 46 -30 35 12 -7 31 -39
71 -49 61z"/>
<path d="M6932 11323 c2 -46 7 -59 21 -61 14 -3 17 4 17 41 0 55 -8 77 -27 77
-11 0 -13 -13 -11 -57z"/>
<path d="M7725 11325 c-14 -30 -31 -55 -39 -55 -8 0 -18 -10 -22 -22 -11 -39
-65 -116 -84 -121 -16 -4 -36 -64 -25 -75 16 -17 191 117 225 173 41 66 35
155 -11 155 -15 0 -27 -15 -44 -55z"/>
<path d="M8160 11302 c0 -33 38 -97 68 -115 47 -27 118 -145 99 -164 -4 -3
-26 4 -51 15 -34 17 -47 29 -56 57 -13 40 -49 69 -73 59 -35 -13 -35 -145 0
-193 18 -24 27 -26 97 -29 72 -3 80 -1 103 22 24 24 49 32 118 38 49 5 45 43
-9 101 -25 26 -55 70 -67 97 -28 65 -120 130 -186 130 -35 0 -43 -3 -43 -18z"/>
<path d="M5581 10597 c-30 -33 -59 -116 -67 -197 -6 -61 -4 -70 15 -89 30 -30
44 -23 54 25 5 21 19 86 32 143 17 74 21 109 14 122 -13 25 -21 24 -48 -4z"/>
<path d="M5642 10384 c3 -49 9 -70 22 -80 33 -23 45 -7 39 49 -8 74 -19 97
-44 97 -20 0 -21 -4 -17 -66z"/>
<path d="M5007 8083 c-16 -16 -4 -43 39 -86 41 -42 51 -47 89 -47 24 0 47 5
50 10 3 6 25 10 48 10 50 0 72 12 64 34 -13 33 -85 45 -143 24 -28 -10 -36 -9
-51 3 -33 28 -90 59 -96 52z"/>
<path d="M5409 7664 c-23 -62 94 -196 126 -144 8 13 135 13 135 1 0 -35 69
-53 112 -30 16 8 22 8 29 -2 6 -11 14 -11 42 -1 18 7 47 12 65 12 17 0 34 5
37 10 4 6 21 8 40 4 36 -6 78 14 95 46 22 42 -75 109 -158 110 -32 0 -54 -8
-93 -35 -93 -64 -188 -70 -277 -19 -76 43 -133 74 -138 74 -2 0 -9 -12 -15
-26z m328 -121 c-9 -9 -20 -13 -24 -9 -4 4 -1 11 7 16 25 16 35 11 17 -7z"/>
<path d="M2987 7583 c-16 -15 -5 -38 32 -69 51 -44 172 -289 155 -315 -8 -13
-25 -1 -98 69 -53 51 -74 65 -106 69 -42 6 -70 -8 -70 -35 0 -8 18 -32 40 -53
22 -21 40 -43 40 -49 0 -5 -18 -10 -40 -10 -22 0 -40 -4 -40 -9 0 -5 24 -38
54 -74 31 -39 80 -120 120 -201 37 -75 84 -156 105 -180 65 -75 130 -206 102
-206 -6 0 -39 28 -75 63 -55 52 -66 68 -66 95 0 36 -24 102 -37 102 -5 0 -26
23 -48 51 -71 92 -127 152 -164 177 -20 13 -37 28 -39 33 -6 15 -29 10 -36 -8
-7 -18 3 -31 99 -129 61 -62 136 -172 175 -256 12 -26 28 -52 36 -59 8 -6 14
-16 14 -21 0 -5 23 -47 51 -94 50 -83 74 -140 99 -236 16 -61 45 -108 67 -108
10 0 31 11 47 23 24 20 30 33 34 78 8 105 -41 317 -103 444 -41 83 -52 143
-35 184 11 26 8 38 -25 111 -45 99 -54 150 -31 169 22 19 21 28 -24 146 -56
146 -125 272 -161 290 -30 16 -61 19 -72 8z"/>
<path d="M3276 4707 c7 -104 5 -113 -56 -187 -48 -57 -64 -91 -85 -170 -32
-128 -58 -183 -115 -250 -97 -113 -108 -140 -54 -140 16 0 41 16 71 45 25 25
49 45 53 45 4 0 23 26 43 58 24 40 39 81 50 138 17 91 35 130 102 224 54 77
75 140 75 230 0 75 -16 100 -63 100 l-27 0 6 -93z"/>
<path d="M5981 2852 c-6 -12 -11 -29 -10 -39 0 -11 6 -6 15 16 16 37 12 55 -5
23z"/>
<path d="M7123 6963 c-18 -7 -16 -33 3 -54 15 -16 17 -16 35 -1 24 21 24 39 0
52 -11 5 -21 10 -23 9 -2 0 -9 -3 -15 -6z"/>
<path d="M7236 6924 c-7 -19 1 -34 19 -34 21 0 28 19 15 35 -16 19 -26 19 -34
-1z"/>
<path d="M6913 6710 c-29 -12 -29 -34 -1 -54 28 -20 38 -20 66 2 19 15 20 20
10 34 -17 21 -48 29 -75 18z"/>
<path d="M5400 3021 c-19 -29 -44 -67 -55 -85 -11 -18 -38 -57 -60 -86 -103
-139 -157 -250 -122 -250 20 0 42 32 103 150 27 52 61 110 76 128 15 18 38 51
50 74 13 22 29 51 36 65 7 13 12 31 10 40 -2 10 -15 -2 -38 -36z"/>
<path d="M1859 922 c-62 -48 -191 -133 -214 -142 -14 -5 -25 -13 -25 -18 0
-16 24 -32 49 -32 30 0 148 65 164 91 10 15 23 19 74 19 35 0 63 -4 63 -10 0
-5 7 -10 15 -10 41 0 -7 82 -62 105 -43 18 -36 19 -64 -3z"/>
<path d="M2103 673 c-8 -3 -13 -23 -13 -52 0 -27 -5 -63 -12 -82 -16 -48 -81
-149 -118 -182 -50 -48 -36 -97 28 -97 44 0 85 30 118 86 14 24 30 44 34 44
12 0 48 101 67 183 13 58 13 71 2 82 -15 14 -86 26 -106 18z"/>
<path d="M8790 8050 c0 -11 3 -20 8 -21 4 0 27 -27 52 -59 64 -84 80 -76 39
20 -29 68 -99 110 -99 60z"/>
<path d="M11030 6010 c-8 -5 -42 -9 -75 -9 -59 1 -175 -5 -670 -37 -233 -15
-285 -17 -317 -14 -7 1 -150 -3 -318 -9 -286 -10 -425 -22 -460 -40 -20 -11
-25 -38 -10 -56 15 -18 173 -21 216 -5 19 7 30 7 40 -1 8 -7 27 -9 46 -4 71
15 141 17 163 5 14 -8 38 -10 62 -6 21 4 72 10 113 15 41 4 88 13 103 21 22
11 35 11 61 2 41 -15 69 -15 84 0 8 8 15 8 26 -1 11 -10 19 -9 35 1 16 10 23
10 33 0 15 -15 80 -16 94 -2 8 8 19 8 38 0 34 -13 239 -13 252 -1 5 5 97 12
204 15 223 6 306 11 370 23 38 7 45 12 48 34 4 38 -16 85 -30 71 -15 -15 -65
-16 -73 -2 -8 12 -16 12 -35 0z"/>
<path d="M10380 6000 c0 -6 7 -10 15 -10 8 0 15 2 15 4 0 2 -7 6 -15 10 -8 3
-15 1 -15 -4z"/>
<path d="M1241 3214 c0 -11 3 -14 6 -6 3 7 2 16 -1 19 -3 4 -6 -2 -5 -13z"/>
<path d="M0 531 c0 -50 3 -92 8 -95 14 -9 183 40 193 57 9 13 199 23 199 11 0
-5 -7 -20 -16 -32 -35 -51 19 -67 120 -37 27 8 86 15 132 15 46 0 85 4 88 8
15 25 -47 52 -120 52 -28 0 -54 8 -80 26 -53 37 -163 53 -236 35 -78 -19 -151
-41 -170 -52 -10 -5 -30 -9 -44 -9 -26 0 -26 2 -21 45 4 37 1 47 -14 55 -35
19 -39 12 -39 -79z"/>
<path d="M5758 342 c-14 -9 -33 -30 -41 -48 -15 -30 -17 -31 -99 -37 -45 -4
-113 -7 -149 -7 -53 0 -73 -5 -101 -24 -28 -19 -53 -25 -124 -29 -49 -4 -114
-9 -144 -13 -51 -6 -426 -9 -515 -3 -22 1 -60 -2 -85 -8 l-45 -10 28 -11 c34
-14 455 -14 682 -1 83 5 190 12 240 15 49 3 96 11 104 17 8 7 48 15 90 18 103
9 224 29 234 39 5 4 4 17 -2 28 -17 33 10 48 51 29 31 -14 78 -30 159 -56 45
-14 112 -14 126 0 14 14 146 33 208 30 55 -3 187 -3 238 0 32 2 167 -22 200
-36 28 -12 67 3 67 25 0 14 -12 23 -52 34 -138 39 -188 41 -743 24 -37 -1 -91
7 -139 20 -92 26 -150 27 -188 4z"/>
</g>
</svg>
