<svg width="500" height="500" xmlns="http://www.w3.org/2000/svg">
 <g id="Layer_1">
  <title>Layer 1</title>
  <metadata id="svg_155">image/svg+xml</metadata>
  <metadata id="svg_76">image/svg+xml</metadata>
  <metadata id="svg_156">image/svg+xml</metadata>
  <g id="svg_159" stroke="null">
   <g id="svg_120" stroke="null">
    <g transform="matrix(0.844862 0 0 -0.844862 -261.837 223.612)" id="svg_153" stroke="null">
     <path id="svg_154" d="m666.50951,-31.39262c0,-33.904 -27.486,-61.391 -61.391,-61.391c-33.904,0 -61.391,27.487 -61.391,61.391c0,18.787 8.439,35.597 21.728,46.841c1.761,1.511 3.612,2.896 5.532,4.191c9.756,6.543 21.501,10.359 34.131,10.359c12.642,0 24.386,-3.816 34.154,-10.37c2.01,-1.352 3.93,-2.805 5.758,-4.373c13.154,-11.267 21.479,-27.986 21.479,-46.648" fill-rule="nonzero" fill="#241a1a" stroke="null"/>
    </g>
    <g transform="matrix(0.844862 0 0 -0.844862 -269.881 223.612)" id="svg_151" stroke="null">
     <path id="svg_152" d="m666.50951,-31.39262c0,-28.646 -23.222,-51.868 -51.868,-51.868c-28.647,0 -51.869,23.222 -51.869,51.868c0,28.646 23.222,51.869 51.869,51.869c28.646,0 51.868,-23.223 51.868,-51.869" fill-rule="nonzero" fill="#1d1515" stroke="null"/>
    </g>
    <g transform="matrix(0.844862 0 0 -0.844862 -279.983 184.203)" id="svg_149" stroke="null">
     <path id="svg_150" d="m666.50951,-31.39262l-6.167,-7.258c-9.075,7.792 -20.865,12.483 -33.746,12.483c-12.766,0 -24.454,-4.612 -33.495,-12.267l-6.167,7.235c1.761,1.511 3.612,2.896 5.532,4.191c9.756,6.543 21.501,10.359 34.13,10.359c12.642,0 24.387,-3.816 34.154,-10.37c2.011,-1.352 3.931,-2.806 5.759,-4.373" fill-rule="nonzero" fill="#382b2b" stroke="null"/>
    </g>
    <g transform="matrix(0.844862 0 0 -0.844862 -307.682 177.912)" id="svg_147" stroke="null">
     <path id="svg_148" d="m666.50951,-31.39262l0,-14.814l-14.163,0l0,14.439" fill-rule="nonzero" fill="#0c0b0b" stroke="null"/>
    </g>
    <g transform="matrix(0.844862 0 0 -0.844862 -356.289 241.246)" id="svg_145" stroke="null">
     <path id="svg_146" d="m666.50951,-31.39262l12.83,7.407l7.081,-12.265l-12.505,-7.22" fill-rule="nonzero" fill="#0c0b0b" stroke="null"/>
    </g>
    <g transform="matrix(0.844862 0 0 -0.844862 -277.082 251.705)" id="svg_143" stroke="null">
     <path id="svg_144" d="m666.50951,-31.39262l-12.83,7.407l7.082,12.266l12.505,-7.22" fill-rule="nonzero" fill="#0c0b0b" stroke="null"/>
    </g>
    <g transform="matrix(0.844862 0 0 -0.844862 -275.617 223.614)" id="svg_141" stroke="null">
     <path id="svg_142" d="m666.50951,-31.39262c0,-24.897 -20.184,-45.069 -45.081,-45.069c-24.897,0 -45.08,20.172 -45.08,45.069c0,13.812 6.213,26.169 15.993,34.438c7.848,6.645 18.002,10.643 29.087,10.643c11.211,0 21.456,-4.089 29.339,-10.859c9.643,-8.268 15.742,-20.535 15.742,-34.222" fill-rule="nonzero" fill="#332727" stroke="null"/>
    </g>
    <g transform="matrix(0.844862 0 0 -0.844862 -300.826 223.612)" id="svg_139" stroke="null">
     <path id="svg_140" d="m666.50951,-31.39262c0,-8.417 -6.826,-15.243 -15.243,-15.243c-8.416,0 -15.242,6.826 -15.242,15.243c0,4.43 1.897,8.428 4.918,11.199c2.533,2.351 5.872,3.839 9.541,4.021c0.25,0.023 0.511,0.023 0.772,0.023c0.261,0 0.534,0 0.796,-0.023c3.702,-0.182 7.053,-1.692 9.597,-4.066c2.987,-2.783 4.861,-6.747 4.861,-11.154" fill-rule="nonzero" fill="#261c1c" stroke="null"/>
    </g>
    <g transform="matrix(0.844862 0 0 -0.844862 -304.749 223.609)" id="svg_137" stroke="null">
     <path id="svg_138" d="m666.50951,-31.39262c0,-5.862 -4.759,-10.621 -10.621,-10.621c-5.841,0 -10.6,4.759 -10.6,10.621c0,3.104 1.307,5.882 3.431,7.823c0.205,0.204 0.429,0.387 0.654,0.572c0.184,0.122 0.367,0.245 0.531,0.387c1.715,1.165 3.778,1.839 5.984,1.839c2.267,0 4.35,-0.695 6.066,-1.92c0.163,-0.102 0.306,-0.204 0.47,-0.327c0.245,-0.184 0.49,-0.388 0.714,-0.613c2.084,-1.92 3.371,-4.698 3.371,-7.761" fill-rule="nonzero" fill="#cccccc" stroke="null"/>
    </g>
    <g transform="matrix(0.844862 0 0 -0.844862 -290.376 193.665)" id="svg_135" stroke="null">
     <path id="svg_136" d="m666.50951,-31.39262l-18.241,-23.432c-2.59,2.022 -5.838,3.226 -9.371,3.226c-3.521,0 -6.769,-1.193 -9.347,-3.192l-18.287,23.443c7.599,5.918 17.23,9.485 27.623,9.485c10.393,0 20.024,-3.567 27.623,-9.53" fill-rule="nonzero" fill="#5b4b4b" stroke="null"/>
    </g>
    <g transform="matrix(0.844862 0 0 -0.844862 -308.597 216.258)" id="svg_133" stroke="null">
     <path id="svg_134" d="m666.50951,-31.39262l-5.985,-8.701l-6.066,8.783c1.716,1.164 3.779,1.838 5.985,1.838c2.267,0 4.35,-0.694 6.066,-1.92" fill-rule="nonzero" fill="#efefef" stroke="null"/>
    </g>
    <g transform="matrix(0.844862 0 0 -0.844862 -307.014 73.3074)" id="svg_131" stroke="null">
     <path id="svg_132" d="m666.50951,-31.39262l3.092,-103.161c0.073,-2.537 -0.104,-5.063 -0.522,-7.544l-1.751,-10.351c-0.345,-1.996 -1.614,-3.416 -3.076,-3.416l-11.404,0c-1.494,0 -2.771,1.454 -3.085,3.495l-0.69,4.397l-0.883,5.616c-0.418,2.638 -0.587,5.356 -0.523,8.062l2.996,119.985c0.089,3.303 2.691,5.198 4.65,3.394l3.711,-3.428l0.972,-0.891c3.895,-3.597 6.321,-9.618 6.513,-16.158" fill-rule="nonzero" fill="#d9d9d9" stroke="null"/>
    </g>
    <g transform="matrix(0.844862 0 0 -0.844862 -313.338 58.9034)" id="svg_129" stroke="null">
     <path id="svg_130" d="m666.50951,-31.39262c1.116,-2.763 1.767,-5.886 1.863,-9.156l3.092,-103.161c0.072,-2.537 -0.104,-5.063 -0.522,-7.544l-1.751,-10.351c-0.345,-1.996 -1.614,-3.416 -3.076,-3.416l-9.557,0l-0.883,5.615c-0.418,2.638 -0.587,5.356 -0.523,8.062l2.996,119.985c0.089,3.303 2.691,5.198 4.65,3.394l3.711,-3.428z" fill-rule="nonzero" fill="#d9d9d9" stroke="null"/>
    </g>
    <g transform="matrix(0.844862 0 0 -0.844862 -447.213 292.969)" id="svg_127" stroke="null">
     <path id="svg_128" d="m666.50951,-31.39262l87.794,54.258c2.161,1.331 4.437,2.441 6.794,3.32l9.84,3.659c1.901,0.699 3.765,0.31 4.496,-0.955l5.703,-9.877c0.747,-1.294 0.125,-3.127 -1.485,-4.419l-3.463,-2.797l-4.422,-3.572c-2.076,-1.681 -4.345,-3.186 -6.721,-4.483l-105.407,-57.399c-2.905,-1.575 -5.847,-0.268 -5.265,2.33l1.114,4.928l0.285,1.287c1.168,5.172 5.17,10.282 10.737,13.72" fill-rule="nonzero" fill="#d9d9d9" stroke="null"/>
    </g>
    <g transform="matrix(0.844862 0 0 -0.844862 -456.526 305.648)" id="svg_125" stroke="null">
     <path id="svg_126" d="m666.50951,-31.39262c1.834,2.348 4.214,4.473 6.998,6.191l87.794,54.259c2.161,1.331 4.437,2.441 6.794,3.32l9.839,3.659c1.902,0.698 3.766,0.31 4.497,-0.956l4.779,-8.277l-4.421,-3.572c-2.076,-1.682 -4.345,-3.186 -6.721,-4.483l-105.408,-57.399c-2.905,-1.575 -5.847,-0.268 -5.264,2.33l1.113,4.928z" fill-rule="nonzero" fill="#d9d9d9" stroke="null"/>
    </g>
    <g transform="matrix(0.844862 0 0 -0.844862 -186.826 304.586)" id="svg_123" stroke="null">
     <path id="svg_124" d="m666.50951,-31.39262l-90.887,48.903c-2.233,1.205 -4.332,2.621 -6.271,4.224l-8.089,6.691c-1.556,1.298 -2.152,3.107 -1.421,4.373l5.702,9.876c0.747,1.294 2.646,1.673 4.57,0.924l4.153,-1.601l5.305,-2.042c2.494,-0.958 4.931,-2.171 7.243,-3.579l102.412,-62.587c2.816,-1.729 3.156,-4.929 0.614,-5.724l-4.824,-1.5l-1.257,-0.396c-5.063,-1.575 -11.49,-0.665 -17.25,2.438" fill-rule="nonzero" fill="#d9d9d9" stroke="null"/>
    </g>
    <g transform="matrix(0.844862 0 0 -0.844862 -171.19 306.312)" id="svg_121" stroke="null">
     <path id="svg_122" d="m666.50951,-31.39262c-2.95,0.415 -5.98,1.413 -8.86,2.965l-90.887,48.902c-2.233,1.206 -4.332,2.622 -6.272,4.224l-8.088,6.692c-1.556,1.297 -2.153,3.106 -1.421,4.372l4.778,8.277l5.305,-2.042c2.494,-0.958 4.931,-2.171 7.243,-3.579l102.412,-62.587c2.816,-1.729 3.156,-4.929 0.614,-5.724l-4.824,-1.5z" fill-rule="nonzero" fill="#d9d9d9" stroke="null"/>
    </g>
   </g>
  </g>
 </g>

</svg>